<svg version="1.1" viewBox="0.0 0.0 1101.249343832021 356.997375328084" fill="none" stroke="none" stroke-linecap="square" stroke-miterlimit="10" xmlns:xlink="http://www.w3.org/1999/xlink" xmlns="http://www.w3.org/2000/svg"><clipPath id="p.0"><path d="m0 0l1101.2494 0l0 356.99738l-1101.2494 0l0 -356.99738z" clip-rule="nonzero"/></clipPath><g clip-path="url(#p.0)"><path fill="#000000" fill-opacity="0.0" d="m0 0l1101.2494 0l0 356.99738l-1101.2494 0z" fill-rule="evenodd"/><path fill="#ffffff" d="m5.608924 19.38432l0 0c0 -6.287386 5.0969334 -11.384319 11.38432 -11.384319l117.29436 0c3.0193024 0 5.9149475 1.1994162 8.049927 3.3343897c2.1349792 2.1349745 3.3343964 5.0306215 3.3343964 8.04993l0 166.27072c0 6.2873993 -5.096939 11.384323 -11.384323 11.384323l-117.29436 0c-6.287387 0 -11.38432 -5.096924 -11.38432 -11.384323z" fill-rule="evenodd"/><path stroke="#000000" stroke-width="1.0" stroke-linejoin="round" stroke-linecap="butt" d="m5.608924 19.38432l0 0c0 -6.287386 5.0969334 -11.384319 11.38432 -11.384319l117.29436 0c3.0193024 0 5.9149475 1.1994162 8.049927 3.3343897c2.1349792 2.1349745 3.3343964 5.0306215 3.3343964 8.04993l0 166.27072c0 6.2873993 -5.096939 11.384323 -11.384323 11.384323l-117.29436 0c-6.287387 0 -11.38432 -5.096924 -11.38432 -11.384323z" fill-rule="evenodd"/><path fill="#cfe2f3" d="m27.244438 58.161137l0 0c0 -6.2882195 5.0976105 -11.385826 11.385826 -11.385826l0 0c3.0197105 0 5.915741 1.1995735 8.050995 3.3348312c2.1352577 2.1352577 3.3348312 5.031288 3.3348312 8.050995l0 0c0 6.2882195 -5.0976067 11.38583 -11.385826 11.38583l0 0c-6.2882156 0 -11.385826 -5.0976105 -11.385826 -11.38583z" fill-rule="evenodd"/><path stroke="#000000" stroke-width="1.0" stroke-linejoin="round" stroke-linecap="butt" d="m27.244438 58.161137l0 0c0 -6.2882195 5.0976105 -11.385826 11.385826 -11.385826l0 0c3.0197105 0 5.915741 1.1995735 8.050995 3.3348312c2.1352577 2.1352577 3.3348312 5.031288 3.3348312 8.050995l0 0c0 6.2882195 -5.0976067 11.38583 -11.385826 11.38583l0 0c-6.2882156 0 -11.385826 -5.0976105 -11.385826 -11.38583z" fill-rule="evenodd"/><path fill="#cfe2f3" d="m95.62764 80.93279l0 0c0 -6.2882233 5.0976105 -11.385826 11.385826 -11.385826l0 0c3.0197144 0 5.915741 1.1995697 8.050995 3.3348312c2.1352615 2.135254 3.3348312 5.0312805 3.3348312 8.050995l0 0c0 6.2882156 -5.097603 11.385826 -11.385826 11.385826l0 0c-6.2882156 0 -11.385826 -5.0976105 -11.385826 -11.385826z" fill-rule="evenodd"/><path stroke="#000000" stroke-width="1.0" stroke-linejoin="round" stroke-linecap="butt" d="m95.62764 80.93279l0 0c0 -6.2882233 5.0976105 -11.385826 11.385826 -11.385826l0 0c3.0197144 0 5.915741 1.1995697 8.050995 3.3348312c2.1352615 2.135254 3.3348312 5.0312805 3.3348312 8.050995l0 0c0 6.2882156 -5.097603 11.385826 -11.385826 11.385826l0 0c-6.2882156 0 -11.385826 -5.0976105 -11.385826 -11.385826z" fill-rule="evenodd"/><path fill="#cfe2f3" d="m21.664387 140.20575l0 0c0 -6.288208 5.0976086 -11.3858185 11.385826 -11.3858185l0 0c3.0197105 0 5.915737 1.1995697 8.050995 3.3348236c2.1352577 2.1352692 3.3348312 5.031296 3.3348312 8.050995l0 0c0 6.2882233 -5.0976067 11.385834 -11.385826 11.385834l0 0c-6.2882175 0 -11.385826 -5.0976105 -11.385826 -11.385834z" fill-rule="evenodd"/><path stroke="#000000" stroke-width="1.0" stroke-linejoin="round" stroke-linecap="butt" d="m21.664387 140.20575l0 0c0 -6.288208 5.0976086 -11.3858185 11.385826 -11.3858185l0 0c3.0197105 0 5.915737 1.1995697 8.050995 3.3348236c2.1352577 2.1352692 3.3348312 5.031296 3.3348312 8.050995l0 0c0 6.2882233 -5.0976067 11.385834 -11.385826 11.385834l0 0c-6.2882175 0 -11.385826 -5.0976105 -11.385826 -11.385834z" fill-rule="evenodd"/><path fill="#cfe2f3" d="m107.013466 118.56665l0 0c0 -6.2882233 5.0976105 -11.385826 11.385826 -11.385826l0 0c3.0197144 0 5.915741 1.1995697 8.050995 3.3348312c2.135254 2.135254 3.3348389 5.031288 3.3348389 8.050995l0 0c0 6.2882156 -5.0976105 11.3858185 -11.385834 11.3858185l0 0c-6.2882156 0 -11.385826 -5.097603 -11.385826 -11.3858185z" fill-rule="evenodd"/><path stroke="#000000" stroke-width="1.0" stroke-linejoin="round" stroke-linecap="butt" d="m107.013466 118.56665l0 0c0 -6.2882233 5.0976105 -11.385826 11.385826 -11.385826l0 0c3.0197144 0 5.915741 1.1995697 8.050995 3.3348312c2.135254 2.135254 3.3348389 5.031288 3.3348389 8.050995l0 0c0 6.2882156 -5.0976105 11.3858185 -11.385834 11.3858185l0 0c-6.2882156 0 -11.385826 -5.097603 -11.385826 -11.3858185z" fill-rule="evenodd"/><path fill="#cfe2f3" d="m72.85599 172.20575l0 0c0 -6.288208 5.0976105 -11.3858185 11.385826 -11.3858185l0 0c3.0197067 0 5.915741 1.1995697 8.050995 3.3348236c2.135254 2.1352692 3.3348312 5.031296 3.3348312 8.050995l0 0c0 6.2882233 -5.0976105 11.385834 -11.385826 11.385834l0 0c-6.2882156 0 -11.385826 -5.0976105 -11.385826 -11.385834z" fill-rule="evenodd"/><path stroke="#000000" stroke-width="1.0" stroke-linejoin="round" stroke-linecap="butt" d="m72.85599 172.20575l0 0c0 -6.288208 5.0976105 -11.3858185 11.385826 -11.3858185l0 0c3.0197067 0 5.915741 1.1995697 8.050995 3.3348236c2.135254 2.1352692 3.3348312 5.031296 3.3348312 8.050995l0 0c0 6.2882233 -5.0976105 11.385834 -11.385826 11.385834l0 0c-6.2882156 0 -11.385826 -5.0976105 -11.385826 -11.385834z" fill-rule="evenodd"/><path fill="#000000" fill-opacity="0.0" d="m41.101208 132.15475l57.858265 -43.1811" fill-rule="evenodd"/><path stroke="#000000" stroke-width="1.0" stroke-linejoin="round" stroke-linecap="butt" d="m41.101208 132.15475l57.858265 -43.1811" fill-rule="evenodd"/><path fill="#000000" fill-opacity="0.0" d="m46.68126 66.212135l37.574806 94.614174" fill-rule="evenodd"/><path stroke="#000000" stroke-width="1.0" stroke-linejoin="round" stroke-linecap="butt" d="m46.68126 66.212135l37.574806 94.614174" fill-rule="evenodd"/><path fill="#000000" fill-opacity="0.0" d="m118.39929 129.95247l-26.110237 34.204727" fill-rule="evenodd"/><path stroke="#000000" stroke-width="1.0" stroke-linejoin="round" stroke-linecap="butt" d="m118.39929 129.95247l-26.110237 34.204727" fill-rule="evenodd"/><path fill="#000000" fill-opacity="0.0" d="m107.013466 118.56665l-65.92126 13.574799" fill-rule="evenodd"/><path stroke="#000000" stroke-width="1.0" stroke-linejoin="round" stroke-linecap="butt" d="m107.013466 118.56665l-65.92126 13.574799" fill-rule="evenodd"/><path fill="#000000" fill-opacity="0.0" d="m41.101208 148.25674l31.748035 23.937012" fill-rule="evenodd"/><path stroke="#000000" stroke-width="1.0" stroke-linejoin="round" stroke-linecap="butt" d="m41.101208 148.25674l31.748035 23.937012" fill-rule="evenodd"/><path fill="#000000" fill-opacity="0.0" d="m50.01609 58.161137l45.6063 22.771656" fill-rule="evenodd"/><path stroke="#000000" stroke-width="1.0" stroke-linejoin="round" stroke-linecap="butt" d="m50.01609 58.161137l45.6063 22.771656" fill-rule="evenodd"/><path fill="#000000" fill-opacity="0.0" d="m22.6896 5.6929135l108.125984 0l0 30.80315l-108.125984 0z" fill-rule="evenodd"/><path fill="#000000" d="m38.28335 25.552914l0 -1.34375l4.859375 0l0 4.25q-1.125 0.890625 -2.3125 1.34375q-1.1875 0.453125 -2.4375 0.453125q-1.6875 0 -3.0625 -0.71875q-1.375 -0.734375 -2.078125 -2.09375q-0.703125 -1.375 -0.703125 -3.0625q0 -1.671875 0.6875 -3.125q0.703125 -1.453125 2.015625 -2.15625q1.3125 -0.703125 3.03125 -0.703125q1.234375 0 2.234375 0.40625q1.015625 0.40625 1.578125 1.125q0.578125 0.71875 0.875 1.875l-1.375 0.375q-0.25 -0.875 -0.640625 -1.375q-0.375 -0.5 -1.09375 -0.796875q-0.703125 -0.3125 -1.578125 -0.3125q-1.03125 0 -1.796875 0.328125q-0.75 0.3125 -1.21875 0.828125q-0.46875 0.515625 -0.71875 1.125q-0.4375 1.0625 -0.4375 2.3125q0 1.53125 0.515625 2.5625q0.53125 1.03125 1.53125 1.53125q1.015625 0.5 2.15625 0.5q0.984375 0 1.921875 -0.375q0.9375 -0.390625 1.421875 -0.8125l0 -2.140625l-3.375 0zm6.8984375 4.5l0 -8.296875l1.265625 0l0 1.25q0.484375 -0.875 0.890625 -1.15625q0.40625 -0.28125 0.90625 -0.28125q0.703125 0 1.4375 0.453125l-0.484375 1.296875q-0.515625 -0.296875 -1.03125 -0.296875q-0.453125 0 -0.828125 0.28125q-0.359375 0.265625 -0.515625 0.765625q-0.234375 0.75 -0.234375 1.640625l0 4.34375l-1.40625 0zm10.75 -1.03125q-0.78125 0.671875 -1.5 0.953125q-0.71875 0.265625 -1.546875 0.265625q-1.375 0 -2.109375 -0.671875q-0.734375 -0.671875 -0.734375 -1.703125q0 -0.609375 0.28125 -1.109375q0.28125 -0.515625 0.71875 -0.8125q0.453125 -0.3125 1.015625 -0.46875q0.421875 -0.109375 1.25 -0.203125q1.703125 -0.203125 2.515625 -0.484375q0 -0.296875 0 -0.375q0 -0.859375 -0.390625 -1.203125q-0.546875 -0.484375 -1.609375 -0.484375q-0.984375 0 -1.46875 0.359375q-0.46875 0.34375 -0.6875 1.21875l-1.375 -0.1875q0.1875 -0.875 0.609375 -1.421875q0.4375 -0.546875 1.25 -0.828125q0.8125 -0.296875 1.875 -0.296875q1.0625 0 1.71875 0.25q0.671875 0.25 0.984375 0.625q0.3125 0.375 0.4375 0.953125q0.078125 0.359375 0.078125 1.296875l0 1.875q0 1.96875 0.078125 2.484375q0.09375 0.515625 0.359375 1.0l-1.46875 0q-0.21875 -0.4375 -0.28125 -1.03125zm-0.109375 -3.140625q-0.765625 0.3125 -2.296875 0.53125q-0.875 0.125 -1.234375 0.28125q-0.359375 0.15625 -0.5625 0.46875q-0.1875 0.296875 -0.1875 0.65625q0 0.5625 0.421875 0.9375q0.4375 0.375 1.25 0.375q0.8125 0 1.4375 -0.34375q0.640625 -0.359375 0.9375 -0.984375q0.234375 -0.46875 0.234375 -1.40625l0 -0.515625zm3.6015625 7.359375l0 -11.484375l1.28125 0l0 1.078125q0.453125 -0.640625 1.015625 -0.953125q0.578125 -0.3125 1.390625 -0.3125q1.0624962 0 1.8749962 0.546875q0.8125 0.546875 1.21875 1.546875q0.421875 0.984375 0.421875 2.171875q0 1.28125 -0.46875 2.296875q-0.453125 1.015625 -1.328125 1.5625q-0.8593712 0.546875 -1.8281212 0.546875q-0.703125 0 -1.265625 -0.296875q-0.546875 -0.296875 -0.90625 -0.75l0 4.046875l-1.40625 0zm1.265625 -7.296875q0 1.609375 0.640625 2.375q0.65625 0.765625 1.578125 0.765625q0.9375 0 1.6093712 -0.796875q0.671875 -0.796875 0.671875 -2.453125q0 -1.59375 -0.65625 -2.375q-0.6562462 -0.796875 -1.5624962 -0.796875q-0.890625 0 -1.59375 0.84375q-0.6875 0.84375 -0.6875 2.4375zm7.6328087 4.109375l0 -11.453125l1.40625 0l0 4.109375q0.984375 -1.140625 2.484375 -1.140625q0.921875 0 1.59375 0.359375q0.6875 0.359375 0.96875 1.0q0.296875 0.640625 0.296875 1.859375l0 5.265625l-1.40625 0l0 -5.265625q0 -1.046875 -0.453125 -1.53125q-0.453125 -0.484375 -1.296875 -0.484375q-0.625 0 -1.171875 0.328125q-0.546875 0.328125 -0.78125 0.890625q-0.234375 0.546875 -0.234375 1.515625l0 4.546875l-1.40625 0zm13.78125 0l0 -11.453125l1.515625 0l0 11.453125l-1.515625 0zm4.0078125 0l0 -8.296875l1.265625 0l0 1.171875q0.90625 -1.359375 2.640625 -1.359375q0.75 0 1.375 0.265625q0.625 0.265625 0.9375 0.703125q0.3125 0.4375 0.4375 1.046875q0.078125 0.390625 0.078125 1.359375l0 5.109375l-1.40625 0l0 -5.046875q0 -0.859375 -0.171875 -1.28125q-0.15625 -0.4375 -0.578125 -0.6875q-0.40625 -0.25 -0.96875 -0.25q-0.90625 0 -1.5625 0.578125q-0.640625 0.5625 -0.640625 2.15625l0 4.53125l-1.40625 0zm8.8984375 3.1875l0 -11.484375l1.28125 0l0 1.078125q0.453125 -0.640625 1.015625 -0.953125q0.578125 -0.3125 1.390625 -0.3125q1.0625 0 1.875 0.546875q0.8125 0.546875 1.21875 1.546875q0.421875 0.984375 0.421875 2.171875q0 1.28125 -0.46875 2.296875q-0.453125 1.015625 -1.328125 1.5625q-0.859375 0.546875 -1.828125 0.546875q-0.703125 0 -1.265625 -0.296875q-0.546875 -0.296875 -0.90625 -0.75l0 4.046875l-1.40625 0zm1.265625 -7.296875q0 1.609375 0.640625 2.375q0.65625 0.765625 1.578125 0.765625q0.9375 0 1.609375 -0.796875q0.671875 -0.796875 0.671875 -2.453125q0 -1.59375 -0.65625 -2.375q-0.65625 -0.796875 -1.5625 -0.796875q-0.890625 0 -1.59375 0.84375q-0.6875 0.84375 -0.6875 2.4375zm13.0703125 4.109375l0 -1.21875q-0.96875 1.40625 -2.640625 1.40625q-0.734375 0 -1.375 -0.28125q-0.625 -0.28125 -0.9375 -0.703125q-0.3125 -0.4375 -0.4375 -1.046875q-0.078125 -0.421875 -0.078125 -1.3125l0 -5.140625l1.40625 0l0 4.59375q0 1.109375 0.078125 1.484375q0.140625 0.5625 0.5625 0.875q0.4375 0.3125 1.0625 0.3125q0.640625 0 1.1875 -0.3125q0.5625 -0.328125 0.78125 -0.890625q0.234375 -0.5625 0.234375 -1.625l0 -4.4375l1.40625 0l0 8.296875l-1.25 0zm6.5234375 -1.265625l0.203125 1.25q-0.59375 0.125 -1.0625 0.125q-0.765625 0 -1.1875 -0.234375q-0.421875 -0.25 -0.59375 -0.640625q-0.171875 -0.40625 -0.171875 -1.671875l0 -4.765625l-1.03125 0l0 -1.09375l1.03125 0l0 -2.0625l1.40625 -0.84375l0 2.90625l1.40625 0l0 1.09375l-1.40625 0l0 4.84375q0 0.609375 0.0625 0.78125q0.078125 0.171875 0.25 0.28125q0.171875 0.09375 0.484375 0.09375q0.234375 0 0.609375 -0.0625z" fill-rule="nonzero"/><path fill="#fff2cc" d="m187.75328 63.96102l0 0c0 -10.796585 8.752365 -19.548946 19.54895 -19.548946l100.9651 0c5.1846924 0 10.157043 2.0596123 13.823181 5.725754c3.6661377 3.6661377 5.725769 8.638489 5.725769 13.823193l0 78.19344c0 10.796585 -8.75238 19.54895 -19.54895 19.54895l-100.9651 0c-10.796585 0 -19.54895 -8.752365 -19.54895 -19.54895z" fill-rule="evenodd"/><path stroke="#000000" stroke-width="1.0" stroke-linejoin="round" stroke-linecap="butt" d="m187.75328 63.96102l0 0c0 -10.796585 8.752365 -19.548946 19.54895 -19.548946l100.9651 0c5.1846924 0 10.157043 2.0596123 13.823181 5.725754c3.6661377 3.6661377 5.725769 8.638489 5.725769 13.823193l0 78.19344c0 10.796585 -8.75238 19.54895 -19.54895 19.54895l-100.9651 0c-10.796585 0 -19.54895 -8.752365 -19.54895 -19.54895z" fill-rule="evenodd"/><path fill="#000000" d="m215.85344 107.08712l1.625 -0.25q0.125 0.96875 0.75 1.5q0.625 0.515625 1.75 0.515625q1.125 0 1.671875 -0.453125q0.546875 -0.46875 0.546875 -1.09375q0 -0.546875 -0.484375 -0.875q-0.328125 -0.21875 -1.671875 -0.546875q-1.8125 -0.46875 -2.515625 -0.796875q-0.6875 -0.328125 -1.046875 -0.90625q-0.359375 -0.59375 -0.359375 -1.3125q0 -0.640625 0.296875 -1.1875q0.296875 -0.5625 0.8125 -0.921875q0.375 -0.28125 1.03125 -0.46875q0.671875 -0.203125 1.421875 -0.203125q1.140625 0 2.0 0.328125q0.859375 0.328125 1.265625 0.890625q0.421875 0.5625 0.578125 1.5l-1.609375 0.21875q-0.109375 -0.75 -0.640625 -1.171875q-0.515625 -0.421875 -1.46875 -0.421875q-1.140625 0 -1.625 0.375q-0.46875 0.375 -0.46875 0.875q0 0.3125 0.1875 0.578125q0.203125 0.265625 0.640625 0.4375q0.234375 0.09375 1.4375 0.421875q1.75 0.453125 2.4375 0.75q0.6875 0.296875 1.078125 0.859375q0.390625 0.5625 0.390625 1.40625q0 0.828125 -0.484375 1.546875q-0.46875 0.71875 -1.375 1.125q-0.90625 0.390625 -2.046875 0.390625q-1.875 0 -2.875 -0.78125q-0.984375 -0.78125 -1.25 -2.328125zm13.5625 1.421875l0.234375 1.453125q-0.6875 0.140625 -1.234375 0.140625q-0.890625 0 -1.390625 -0.28125q-0.484375 -0.28125 -0.6875 -0.734375q-0.203125 -0.46875 -0.203125 -1.9375l0 -5.578125l-1.203125 0l0 -1.265625l1.203125 0l0 -2.390625l1.625 -0.984375l0 3.375l1.65625 0l0 1.265625l-1.65625 0l0 5.671875q0 0.6875 0.078125 0.890625q0.09375 0.203125 0.28125 0.328125q0.203125 0.109375 0.578125 0.109375q0.265625 0 0.71875 -0.0625zm1.5895538 1.46875l0 -9.671875l1.46875 0l0 1.46875q0.5625 -1.03125 1.03125 -1.359375q0.484375 -0.328125 1.0625 -0.328125q0.828125 0 1.6875 0.53125l-0.5625 1.515625q-0.609375 -0.359375 -1.203125 -0.359375q-0.546875 0 -0.96875 0.328125q-0.421875 0.328125 -0.609375 0.890625q-0.28125 0.875 -0.28125 1.921875l0 5.0625l-1.625 0zm12.556427 0l0 -1.421875q-1.125 1.640625 -3.0625 1.640625q-0.859375 0 -1.609375 -0.328125q-0.734375 -0.328125 -1.09375 -0.828125q-0.359375 -0.5 -0.5 -1.21875q-0.109375 -0.46875 -0.109375 -1.53125l0 -5.984375l1.640625 0l0 5.359375q0 1.28125 0.109375 1.734375q0.15625 0.640625 0.65625 1.015625q0.5 0.375 1.234375 0.375q0.734375 0 1.375 -0.375q0.65625 -0.390625 0.921875 -1.03125q0.265625 -0.65625 0.265625 -1.890625l0 -5.1875l1.640625 0l0 9.671875l-1.46875 0zm10.360092 -3.546875l1.609375 0.21875q-0.265625 1.65625 -1.359375 2.609375q-1.078125 0.9375 -2.671875 0.9375q-1.984375 0 -3.1875 -1.296875q-1.203125 -1.296875 -1.203125 -3.71875q0 -1.578125 0.515625 -2.75q0.515625 -1.171875 1.578125 -1.75q1.0625 -0.59375 2.3125 -0.59375q1.578125 0 2.578125 0.796875q1.0 0.796875 1.28125 2.265625l-1.59375 0.234375q-0.234375 -0.96875 -0.8125 -1.453125q-0.578125 -0.5 -1.390625 -0.5q-1.234375 0 -2.015625 0.890625q-0.78125 0.890625 -0.78125 2.8125q0 1.953125 0.75 2.84375q0.75 0.875 1.953125 0.875q0.96875 0 1.609375 -0.59375q0.65625 -0.59375 0.828125 -1.828125zm6.5937347 2.078125l0.234375 1.453125q-0.6875 0.140625 -1.234375 0.140625q-0.890625 0 -1.390625 -0.28125q-0.484375 -0.28125 -0.6875 -0.734375q-0.203125 -0.46875 -0.203125 -1.9375l0 -5.578125l-1.203125 0l0 -1.265625l1.203125 0l0 -2.390625l1.625 -0.984375l0 3.375l1.65625 0l0 1.265625l-1.65625 0l0 5.671875q0 0.6875 0.078125 0.890625q0.09375 0.203125 0.28125 0.328125q0.203125 0.109375 0.578125 0.109375q0.265625 0 0.71875 -0.0625zm9.761444 -0.109375l0 1.578125l-8.828125 0q-0.015625 -0.59375 0.1875 -1.140625q0.34375 -0.90625 1.078125 -1.78125q0.75 -0.875 2.15625 -2.015625q2.171875 -1.78125 2.9375 -2.828125q0.765625 -1.046875 0.765625 -1.96875q0 -0.984375 -0.703125 -1.640625q-0.6875 -0.671875 -1.8125 -0.671875q-1.1875 0 -1.90625 0.71875q-0.703125 0.703125 -0.703125 1.953125l-1.6875 -0.171875q0.171875 -1.890625 1.296875 -2.875q1.140625 -0.984375 3.03125 -0.984375q1.921875 0 3.046875 1.0625q1.125 1.0625 1.125 2.640625q0 0.796875 -0.328125 1.578125q-0.328125 0.78125 -1.09375 1.640625q-0.75 0.84375 -2.53125 2.34375q-1.46875 1.234375 -1.890625 1.6875q-0.421875 0.4375 -0.6875 0.875l6.546875 0zm4.906952 1.578125l-3.6875 -9.671875l1.734375 0l2.078125 5.796875q0.328125 0.9375 0.625 1.9375q0.203125 -0.765625 0.609375 -1.828125l2.140625 -5.90625l1.6875 0l-3.65625 9.671875l-1.53125 0zm13.265625 -3.109375l1.6875 0.203125q-0.40625 1.484375 -1.484375 2.3125q-1.078125 0.8125 -2.765625 0.8125q-2.125 0 -3.375 -1.296875q-1.234375 -1.3125 -1.234375 -3.671875q0 -2.453125 1.25 -3.796875q1.265625 -1.34375 3.265625 -1.34375q1.9375 0 3.15625 1.328125q1.234375 1.3125 1.234375 3.703125q0 0.15625 0 0.4375l-7.21875 0q0.09375 1.59375 0.90625 2.453125q0.8125 0.84375 2.015625 0.84375q0.90625 0 1.546875 -0.46875q0.640625 -0.484375 1.015625 -1.515625zm-5.390625 -2.65625l5.40625 0q-0.109375 -1.21875 -0.625 -1.828125q-0.78125 -0.953125 -2.03125 -0.953125q-1.125 0 -1.90625 0.765625q-0.765625 0.75 -0.84375 2.015625zm15.453857 2.21875l1.609375 0.21875q-0.265625 1.65625 -1.359375 2.609375q-1.078125 0.9375 -2.671875 0.9375q-1.984375 0 -3.1875 -1.296875q-1.203125 -1.296875 -1.203125 -3.71875q0 -1.578125 0.515625 -2.75q0.515625 -1.171875 1.578125 -1.75q1.0625 -0.59375 2.3125 -0.59375q1.578125 0 2.578125 0.796875q1.0 0.796875 1.28125 2.265625l-1.59375 0.234375q-0.234375 -0.96875 -0.8125 -1.453125q-0.578125 -0.5 -1.390625 -0.5q-1.234375 0 -2.015625 0.890625q-0.78125 0.890625 -0.78125 2.8125q0 1.953125 0.75 2.84375q0.75 0.875 1.953125 0.875q0.96875 0 1.609375 -0.59375q0.65625 -0.59375 0.828125 -1.828125z" fill-rule="nonzero"/><path fill="#000000" fill-opacity="0.0" d="m145.67192 102.519684l42.078735 0.5354309" fill-rule="evenodd"/><path stroke="#000000" stroke-width="1.0" stroke-linejoin="round" stroke-linecap="butt" d="m145.67192 102.519684l36.079224 0.4590912" fill-rule="evenodd"/><path fill="#000000" stroke="#000000" stroke-width="1.0" stroke-linecap="butt" d="m181.73013 104.63038l4.5587463 -1.5938644l-4.5167236 -1.7093353z" fill-rule="evenodd"/><path fill="#cfe2f3" d="m355.00787 32.74997l35.3071 0l0 143.49606l-35.3071 0z" fill-rule="evenodd"/><path stroke="#000000" stroke-width="1.0" stroke-linejoin="round" stroke-linecap="butt" d="m355.00787 32.74997l35.3071 0l0 143.49606l-35.3071 0z" fill-rule="evenodd"/><path fill="#000000" fill-opacity="0.0" d="m393.1545 46.13186l0 115.02363l-38.70865 0l0 -115.02363z" fill-rule="evenodd"/><path fill="#000000" d="m370.40515 62.428734l-0.1875 1.5625q-1.390625 -0.359375 -2.15625 -1.375q-0.75 -1.0 -0.75 -2.5625q0 -1.984375 1.203125 -3.140625q1.21875 -1.140625 3.421875 -1.140625q2.265625 0 3.515625 1.15625q1.25 1.171875 1.25 3.03125q0 1.8125 -1.234375 2.953125q-1.21875 1.140625 -3.4375 1.140625q-0.140625 0 -0.40625 -0.015625l0 -6.703125q-1.484375 0.09375 -2.28125 0.84375q-0.78125 0.75 -0.78125 1.875q0 0.84375 0.4375 1.4375q0.4375 0.59375 1.40625 0.9375zm2.46875 -5.0l0 5.015625q1.125 -0.109375 1.703125 -0.578125q0.875 -0.734375 0.875 -1.890625q0 -1.046875 -0.703125 -1.765625q-0.703125 -0.703125 -1.875 -0.78125zm-5.359375 8.480835l8.984375 0l0 1.359375l-1.265625 0q0.671875 0.421875 1.0625 1.125q0.40625 0.703125 0.40625 1.609375q0 1.0 -0.421875 1.625q-0.40625 0.640625 -1.15625 0.90625q1.578125 1.0625 1.578125 2.78125q0 1.328125 -0.75 2.046875q-0.734375 0.71875 -2.265625 0.71875l-6.171875 0l0 -1.515625l5.65625 0q0.921875 0 1.3125 -0.15625q0.40625 -0.140625 0.65625 -0.53125q0.25 -0.375 0.25 -0.90625q0 -0.953125 -0.640625 -1.578125q-0.625 -0.625 -2.015625 -0.625l-5.21875 0l0 -1.515625l5.84375 0q1.015625 0 1.515625 -0.375q0.515625 -0.375 0.515625 -1.21875q0 -0.640625 -0.34375 -1.1875q-0.34375 -0.546875 -1.0 -0.796875q-0.640625 -0.234375 -1.875 -0.234375l-4.65625 0l0 -1.53125zm0 15.8407135l0 -1.40625l12.40625 0l0 1.515625l-4.421875 0q1.203125 0.96875 1.203125 2.46875q0 0.828125 -0.34375 1.5625q-0.328125 0.734375 -0.9375 1.21875q-0.59375 0.484375 -1.453125 0.75q-0.859375 0.265625 -1.828125 0.265625q-2.3125 0 -3.578125 -1.140625q-1.25 -1.140625 -1.25 -2.734375q0 -1.59375 1.328125 -2.5l-1.125 0zm4.5625 -0.015625q-1.625 0 -2.34375 0.4375q-1.171875 0.71875 -1.171875 1.953125q0 1.0 0.859375 1.71875q0.875 0.734375 2.59375 0.734375q1.765625 0 2.59375 -0.703125q0.84375 -0.703125 0.84375 -1.6875q0 -1.0 -0.875 -1.734375q-0.859375 -0.71875 -2.5 -0.71875zm-1.671875 14.40271l-0.1875 1.5625q-1.390625 -0.359375 -2.15625 -1.375q-0.75 -1.0 -0.75 -2.5625q0 -1.984375 1.203125 -3.140625q1.21875 -1.140625 3.421875 -1.140625q2.265625 0 3.515625 1.15625q1.25 1.171875 1.25 3.03125q0 1.8125 -1.234375 2.953125q-1.21875 1.140625 -3.4375 1.140625q-0.140625 0 -0.40625 -0.015625l0 -6.703125q-1.484375 0.09375 -2.28125 0.84375q-0.78125 0.75 -0.78125 1.875q0 0.84375 0.4375 1.4375q0.4375 0.59375 1.40625 0.9375zm2.46875 -5.0l0 5.015625q1.125 -0.109375 1.703125 -0.578125q0.875 -0.734375 0.875 -1.890625q0 -1.046875 -0.703125 -1.765625q-0.703125 -0.703125 -1.875 -0.78125zm-5.359375 14.30896l1.140625 0q-1.34375 -0.84375 -1.34375 -2.515625q0 -1.0625 0.59375 -1.96875q0.59375 -0.90625 1.65625 -1.40625q1.0625 -0.484375 2.4375 -0.484375q1.34375 0 2.4375 0.4375q1.09375 0.453125 1.671875 1.34375q0.59375 0.90625 0.59375 2.015625q0 0.8125 -0.34375 1.4375q-0.34375 0.640625 -0.890625 1.046875l4.453125 0l0 1.515625l-12.40625 0l0 -1.421875zm4.484375 -4.8125q-1.71875 0 -2.578125 0.71875q-0.859375 0.734375 -0.859375 1.734375q0 0.984375 0.8125 1.6875q0.828125 0.703125 2.5 0.703125q1.84375 0 2.703125 -0.71875q0.859375 -0.703125 0.859375 -1.75q0 -1.015625 -0.828125 -1.703125q-0.828125 -0.671875 -2.609375 -0.671875zm-4.484375 14.449585l1.140625 0q-1.34375 -0.84375 -1.34375 -2.515625q0 -1.0625 0.59375 -1.96875q0.59375 -0.90625 1.65625 -1.40625q1.0625 -0.484375 2.4375 -0.484375q1.34375 0 2.4375 0.4375q1.09375 0.453125 1.671875 1.34375q0.59375 0.90625 0.59375 2.015625q0 0.8125 -0.34375 1.4375q-0.34375 0.640625 -0.890625 1.046875l4.453125 0l0 1.515625l-12.40625 0l0 -1.421875zm4.484375 -4.8125q-1.71875 0 -2.578125 0.71875q-0.859375 0.734375 -0.859375 1.734375q0 0.984375 0.8125 1.6875q0.828125 0.703125 2.5 0.703125q1.84375 0 2.703125 -0.71875q0.859375 -0.703125 0.859375 -1.75q0 -1.015625 -0.828125 -1.703125q-0.828125 -0.671875 -2.609375 -0.671875zm6.171875 8.637085l1.75 0l0 1.515625l-1.75 0l0 -1.515625zm-10.65625 0l8.984375 0l0 1.515625l-8.984375 0l0 -1.515625zm0 3.834137l8.984375 0l0 1.375l-1.28125 0q1.484375 0.984375 1.484375 2.859375q0 0.8125 -0.296875 1.4843674q-0.28125 0.6875 -0.765625 1.015625q-0.46875 0.34375 -1.125 0.484375q-0.421875 0.078125 -1.46875 0.078125l-5.53125 0l0 -1.515625l5.46875 0q0.921875 0 1.375 -0.1875q0.46875 -0.171875 0.75 -0.6249924q0.28125 -0.453125 0.28125 -1.0625q0 -0.96875 -0.625 -1.671875q-0.609375 -0.703125 -2.34375 -0.703125l-4.90625 0l0 -1.53125zm-0.75 9.355827l-0.21875 1.484375q-0.6875 0.09375 -1.0 0.515625q-0.421875 0.5625 -0.421875 1.546875q0 1.0625 0.421875 1.625q0.421875 0.578125 1.1875 0.78125q0.46875 0.125 1.953125 0.109375q-1.171875 -0.984375 -1.171875 -2.484375q0 -1.84375 1.328125 -2.859375q1.34375 -1.015625 3.21875 -1.015625q1.28125 0 2.359375 0.453125q1.09375 0.46875 1.6875 1.34375q0.59375 0.890625 0.59375 2.09375q0 1.59375 -1.28125 2.625l1.078125 0l0 1.40625l-7.765625 0q-2.09375 0 -2.96875 -0.4375q-0.875 -0.421875 -1.375 -1.359375q-0.515625 -0.921875 -0.515625 -2.265625q0 -1.609375 0.71875 -2.609375q0.71875 -0.984375 2.171875 -0.953125zm5.40625 1.265625q-1.765625 0 -2.578125 0.703125q-0.8125 0.703125 -0.8125 1.75q0 1.0625 0.796875 1.765625q0.8125 0.71875 2.546875 0.71875q1.640625 0 2.46875 -0.734375q0.84375 -0.734375 0.84375 -1.765625q0 -1.015625 -0.828125 -1.734375q-0.8125 -0.703125 -2.4375 -0.703125zm-1.96875 8.043335l0.234375 1.515625q-0.90625 0.125 -1.390625 0.703125q-0.484375 0.578125 -0.484375 1.609375q0 1.0625 0.421875 1.5625q0.4375 0.515625 1.015625 0.515625q0.515625 0 0.8125 -0.453125q0.203125 -0.3125 0.515625 -1.5625q0.421875 -1.671875 0.71875 -2.328125q0.3125 -0.640625 0.859375 -0.984375q0.546875 -0.328125 1.203125 -0.328125q0.609375 0 1.109375 0.28125q0.515625 0.28125 0.859375 0.75q0.265625 0.359375 0.4375 0.96875q0.1875 0.609375 0.1875 1.3125q0 1.0625 -0.3125 1.859375q-0.296875 0.796875 -0.828125 1.171875q-0.515625 0.390625 -1.375 0.53125l-0.203125 -1.484375q0.6875 -0.109375 1.078125 -0.59375q0.390625 -0.484375 0.390625 -1.375q0 -1.046875 -0.34375 -1.5q-0.34375 -0.4375 -0.8125 -0.4375q-0.296875 0 -0.53125 0.171875q-0.25 0.1875 -0.40625 0.59375q-0.09375 0.21875 -0.390625 1.34375q-0.4375 1.609375 -0.71875 2.25q-0.265625 0.640625 -0.796875 1.0q-0.515625 0.375 -1.296875 0.375q-0.765625 0 -1.4375 -0.453125q-0.671875 -0.4375 -1.046875 -1.28125q-0.359375 -0.828125 -0.359375 -1.890625q0 -1.75 0.71875 -2.671875q0.734375 -0.921875 2.171875 -1.171875z" fill-rule="nonzero"/><path fill="#000000" fill-opacity="0.0" d="m327.81628 103.05774l26.614166 0.5984268" fill-rule="evenodd"/><path stroke="#000000" stroke-width="1.0" stroke-linejoin="round" stroke-linecap="butt" d="m327.81628 103.05774l20.615692 0.46355438" fill-rule="evenodd"/><path fill="#000000" stroke="#000000" stroke-width="1.0" stroke-linecap="butt" d="m348.39484 105.17261l4.574066 -1.5493011l-4.499817 -1.753334z" fill-rule="evenodd"/><path fill="#fff2cc" d="m454.36746 69.38091l0 0c0 -9.225227 7.4785156 -16.703747 16.703735 -16.703747l140.8287 0c4.4301147 0 8.678772 1.7598534 11.81134 4.892414c3.1325684 3.1325607 4.892456 7.3812256 4.892456 11.811333l0 66.81298c0 9.22522 -7.4785156 16.70375 -16.703796 16.70375l-140.8287 0c-9.22522 0 -16.703735 -7.478531 -16.703735 -16.70375z" fill-rule="evenodd"/><path stroke="#000000" stroke-width="1.0" stroke-linejoin="round" stroke-linecap="butt" d="m454.36746 69.38091l0 0c0 -9.225227 7.4785156 -16.703747 16.703735 -16.703747l140.8287 0c4.4301147 0 8.678772 1.7598534 11.81134 4.892414c3.1325684 3.1325607 4.892456 7.3812256 4.892456 11.811333l0 66.81298c0 9.22522 -7.4785156 16.70375 -16.703796 16.70375l-140.8287 0c-9.22522 0 -16.703735 -7.478531 -16.703735 -16.70375z" fill-rule="evenodd"/><path fill="#000000" d="m493.20663 98.59802l0 1.90625l-1.765625 0l0 -1.515625q0 -1.21875 0.296875 -1.765625q0.390625 -0.71875 1.21875 -1.09375l0.390625 0.640625q-0.5 0.203125 -0.734375 0.625q-0.234375 0.40625 -0.265625 1.203125l0.859375 0zm2.828125 0l0 1.90625l-1.765625 0l0 -1.515625q0 -1.21875 0.296875 -1.765625q0.375 -0.71875 1.203125 -1.09375l0.40625 0.640625q-0.5 0.203125 -0.734375 0.625q-0.234375 0.40625 -0.265625 1.203125l0.859375 0zm8.415802 9.921875q-0.921875 0.765625 -1.765625 1.09375q-0.828125 0.3125 -1.796875 0.3125q-1.59375 0 -2.453125 -0.78125q-0.859375 -0.78125 -0.859375 -1.984375q0 -0.71875 0.328125 -1.296875q0.328125 -0.59375 0.84375 -0.9375q0.53125 -0.359375 1.1875 -0.546875q0.46875 -0.125 1.453125 -0.25q1.984375 -0.234375 2.921875 -0.5625q0.015625 -0.34375 0.015625 -0.421875q0 -1.0 -0.46875 -1.421875q-0.625 -0.546875 -1.875 -0.546875q-1.15625 0 -1.703125 0.40625q-0.546875 0.40625 -0.8125 1.421875l-1.609375 -0.21875q0.21875 -1.015625 0.71875 -1.640625q0.5 -0.640625 1.453125 -0.984375q0.953125 -0.34375 2.1875 -0.34375q1.25 0 2.015625 0.296875q0.78125 0.28125 1.140625 0.734375q0.375 0.4375 0.515625 1.109375q0.078125 0.421875 0.078125 1.515625l0 2.1875q0 2.28125 0.109375 2.890625q0.109375 0.59375 0.40625 1.15625l-1.703125 0q-0.265625 -0.515625 -0.328125 -1.1875zm-0.140625 -3.671875q-0.890625 0.375 -2.671875 0.625q-1.015625 0.140625 -1.4375 0.328125q-0.421875 0.1875 -0.65625 0.53125q-0.21875 0.34375 -0.21875 0.78125q0 0.65625 0.5 1.09375q0.5 0.4375 1.453125 0.4375q0.9375 0 1.671875 -0.40625q0.75 -0.421875 1.09375 -1.140625q0.265625 -0.5625 0.265625 -1.640625l0 -0.609375zm10.469482 4.859375l0 -1.21875q-0.90625 1.4375 -2.703125 1.4375q-1.15625 0 -2.125 -0.640625q-0.96875 -0.640625 -1.5 -1.78125q-0.53125 -1.140625 -0.53125 -2.625q0 -1.453125 0.484375 -2.625q0.484375 -1.1875 1.4375 -1.8125q0.96875 -0.625 2.171875 -0.625q0.875 0 1.546875 0.375q0.6875 0.359375 1.109375 0.953125l0 -4.796875l1.640625 0l0 13.359375l-1.53125 0zm-5.171875 -4.828125q0 1.859375 0.78125 2.78125q0.78125 0.921875 1.84375 0.921875q1.078125 0 1.828125 -0.875q0.75 -0.890625 0.75 -2.6875q0 -1.984375 -0.765625 -2.90625q-0.765625 -0.9375 -1.890625 -0.9375q-1.078125 0 -1.8125 0.890625q-0.734375 0.890625 -0.734375 2.8125zm15.547607 4.828125l0 -1.21875q-0.90625 1.4375 -2.703125 1.4375q-1.15625 0 -2.125 -0.640625q-0.96875 -0.640625 -1.5 -1.78125q-0.53125 -1.140625 -0.53125 -2.625q0 -1.453125 0.484375 -2.625q0.484375 -1.1875 1.4375 -1.8125q0.96875 -0.625 2.171875 -0.625q0.875 0 1.546875 0.375q0.6875 0.359375 1.109375 0.953125l0 -4.796875l1.640625 0l0 13.359375l-1.53125 0zm-5.171875 -4.828125q0 1.859375 0.78125 2.78125q0.78125 0.921875 1.84375 0.921875q1.078125 0 1.828125 -0.875q0.75 -0.890625 0.75 -2.6875q0 -1.984375 -0.765625 -2.90625q-0.765625 -0.9375 -1.890625 -0.9375q-1.078125 0 -1.8125 0.890625q-0.734375 0.890625 -0.734375 2.8125zm8.844421 -6.765625l0 -1.890625l1.75 0l0 1.5q0 1.21875 -0.28125 1.75q-0.390625 0.75 -1.21875 1.109375l-0.40625 -0.640625q0.5 -0.203125 0.734375 -0.625q0.25 -0.4375 0.28125 -1.203125l-0.859375 0zm2.8125 0l0 -1.890625l1.765625 0l0 1.5q0 1.21875 -0.28125 1.75q-0.390625 0.75 -1.21875 1.109375l-0.40625 -0.640625q0.5 -0.203125 0.734375 -0.625q0.25 -0.4375 0.265625 -1.203125l-0.859375 0zm8.380371 7.578125l0 -1.640625l5.03125 0l0 1.640625l-5.03125 0zm12.239746 4.015625l0 -13.359375l4.609375 0q1.546875 0 2.375 0.203125q1.140625 0.25 1.953125 0.953125q1.0625 0.890625 1.578125 2.28125q0.53125 1.390625 0.53125 3.171875q0 1.515625 -0.359375 2.703125q-0.359375 1.171875 -0.921875 1.9375q-0.546875 0.765625 -1.203125 1.21875q-0.65625 0.4375 -1.59375 0.671875q-0.9375 0.21875 -2.140625 0.21875l-4.828125 0zm1.765625 -1.578125l2.859375 0q1.3125 0 2.0625 -0.234375q0.75 -0.25 1.203125 -0.703125q0.625 -0.625 0.96875 -1.6875q0.359375 -1.0625 0.359375 -2.578125q0 -2.09375 -0.6875 -3.21875q-0.6875 -1.125 -1.671875 -1.5q-0.703125 -0.28125 -2.28125 -0.28125l-2.8125 0l0 10.203125zm21.832336 0.140625q1.234375 0.859375 2.265625 1.25l-0.515625 1.21875q-1.4375 -0.515625 -2.875 -1.625q-1.484375 0.828125 -3.28125 0.828125q-1.8125 0 -3.296875 -0.875q-1.46875 -0.875 -2.265625 -2.453125q-0.796875 -1.59375 -0.796875 -3.578125q0 -1.984375 0.796875 -3.59375q0.8125 -1.625 2.28125 -2.46875q1.484375 -0.859375 3.328125 -0.859375q1.84375 0 3.328125 0.890625q1.484375 0.875 2.265625 2.453125q0.78125 1.578125 0.78125 3.5625q0 1.65625 -0.5 2.96875q-0.5 1.3125 -1.515625 2.28125zm-3.890625 -2.25q1.53125 0.421875 2.515625 1.28125q1.5625 -1.421875 1.5625 -4.28125q0 -1.625 -0.546875 -2.828125q-0.546875 -1.21875 -1.609375 -1.875q-1.0625 -0.671875 -2.390625 -0.671875q-1.96875 0 -3.28125 1.359375q-1.296875 1.34375 -1.296875 4.03125q0 2.59375 1.28125 4.0q1.296875 1.390625 3.296875 1.390625q0.953125 0 1.78125 -0.359375q-0.828125 -0.53125 -1.75 -0.765625l0.4375 -1.28125zm8.261414 3.6875l0 -13.359375l1.8125 0l7.015625 10.484375l0 -10.484375l1.6875 0l0 13.359375l-1.8125 0l-7.015625 -10.5l0 10.5l-1.6875 0z" fill-rule="nonzero"/><path fill="#000000" fill-opacity="0.0" d="m393.1545 103.64367l61.228333 -0.8503952" fill-rule="evenodd"/><path stroke="#000000" stroke-width="1.0" stroke-linejoin="round" stroke-linecap="butt" d="m393.15454 103.64367l55.228912 -0.76706696" fill-rule="evenodd"/><path fill="#000000" stroke="#000000" stroke-width="1.0" stroke-linecap="butt" d="m448.4064 104.528175l4.5147095 -1.7145996l-4.560608 -1.5885468z" fill-rule="evenodd"/><path fill="#fff2cc" d="m454.36746 222.39403l0 0c0 -9.22522 7.4785156 -16.703735 16.703735 -16.703735l140.8287 0c4.4301147 0 8.678772 1.7598572 11.81134 4.8924103c3.1325684 3.132553 4.892456 7.3812256 4.892456 11.811325l0 66.81297c0 9.22525 -7.4785156 16.703766 -16.703796 16.703766l-140.8287 0c-9.22522 0 -16.703735 -7.4785156 -16.703735 -16.703766z" fill-rule="evenodd"/><path stroke="#000000" stroke-width="1.0" stroke-linejoin="round" stroke-linecap="butt" d="m454.36746 222.39403l0 0c0 -9.22522 7.4785156 -16.703735 16.703735 -16.703735l140.8287 0c4.4301147 0 8.678772 1.7598572 11.81134 4.8924103c3.1325684 3.132553 4.892456 7.3812256 4.892456 11.811325l0 66.81297c0 9.22525 -7.4785156 16.703766 -16.703796 16.703766l-140.8287 0c-9.22522 0 -16.703735 -7.4785156 -16.703735 -16.703766z" fill-rule="evenodd"/><path fill="#000000" d="m477.66583 251.61115l0 1.90625l-1.765625 0l0 -1.515625q0 -1.21875 0.296875 -1.765625q0.390625 -0.71875 1.21875 -1.09375l0.390625 0.640625q-0.5 0.203125 -0.734375 0.625q-0.234375 0.40625 -0.265625 1.203125l0.859375 0zm2.828125 0l0 1.90625l-1.765625 0l0 -1.515625q0 -1.21875 0.296875 -1.765625q0.375 -0.71875 1.203125 -1.09375l0.40625 0.640625q-0.5 0.203125 -0.734375 0.625q-0.234375 0.40625 -0.265625 1.203125l0.859375 0zm2.087677 11.109375l0 -9.671875l1.46875 0l0 1.46875q0.5625 -1.03125 1.03125 -1.359375q0.484375 -0.328125 1.0625 -0.328125q0.828125 0 1.6875 0.53125l-0.5625 1.515625q-0.609375 -0.359375 -1.203125 -0.359375q-0.546875 0 -0.96875 0.328125q-0.421875 0.328125 -0.609375 0.890625q-0.28125 0.875 -0.28125 1.921875l0 5.0625l-1.625 0zm12.853302 -3.109375l1.6875 0.203125q-0.40625 1.484375 -1.484375 2.3125q-1.078125 0.8125 -2.765625 0.8125q-2.125 0 -3.375 -1.296875q-1.234375 -1.3125 -1.234375 -3.671875q0 -2.453125 1.25 -3.796875q1.265625 -1.34375 3.265625 -1.34375q1.9375 0 3.15625 1.328125q1.234375 1.3125 1.234375 3.703125q0 0.15625 0 0.4375l-7.21875 0q0.09375 1.59375 0.90625 2.453125q0.8125 0.84375 2.015625 0.84375q0.90625 0 1.546875 -0.46875q0.640625 -0.484375 1.015625 -1.515625zm-5.390625 -2.65625l5.40625 0q-0.109375 -1.21875 -0.625 -1.828125q-0.78125 -0.953125 -2.03125 -0.953125q-1.125 0 -1.90625 0.765625q-0.765625 0.75 -0.84375 2.015625zm9.141357 5.765625l0 -9.671875l1.46875 0l0 1.359375q0.453125 -0.71875 1.203125 -1.140625q0.765625 -0.4375 1.71875 -0.4375q1.078125 0 1.765625 0.453125q0.6875 0.4375 0.96875 1.234375q1.15625 -1.6875 2.984375 -1.6875q1.453125 0 2.21875 0.796875q0.78125 0.796875 0.78125 2.453125l0 6.640625l-1.640625 0l0 -6.09375q0 -0.984375 -0.15625 -1.40625q-0.15625 -0.4375 -0.578125 -0.703125q-0.421875 -0.265625 -0.984375 -0.265625q-1.015625 0 -1.6875 0.6875q-0.671875 0.671875 -0.671875 2.15625l0 5.625l-1.640625 0l0 -6.28125q0 -1.09375 -0.40625 -1.640625q-0.40625 -0.546875 -1.3125 -0.546875q-0.6875 0 -1.28125 0.359375q-0.59375 0.359375 -0.859375 1.0625q-0.25 0.703125 -0.25 2.03125l0 5.015625l-1.640625 0zm14.9313965 -4.84375q0 -2.6875 1.484375 -3.96875q1.25 -1.078125 3.046875 -1.078125q2.0 0 3.265625 1.3125q1.265625 1.296875 1.265625 3.609375q0 1.859375 -0.5625 2.9375q-0.5625 1.0625 -1.640625 1.65625q-1.0625 0.59375 -2.328125 0.59375q-2.03125 0 -3.28125 -1.296875q-1.25 -1.3125 -1.25 -3.765625zm1.6875 0q0 1.859375 0.796875 2.796875q0.8125 0.921875 2.046875 0.921875q1.21875 0 2.03125 -0.921875q0.8125 -0.9375 0.8125 -2.84375q0 -1.796875 -0.8125 -2.71875q-0.8125 -0.921875 -2.03125 -0.921875q-1.234375 0 -2.046875 0.921875q-0.796875 0.90625 -0.796875 2.765625zm11.985107 4.84375l-3.6875 -9.671875l1.734375 0l2.078125 5.796875q0.328125 0.9375 0.625 1.9375q0.203125 -0.765625 0.609375 -1.828125l2.140625 -5.90625l1.6875 0l-3.65625 9.671875l-1.53125 0zm13.265625 -3.109375l1.6875 0.203125q-0.40625 1.484375 -1.484375 2.3125q-1.078125 0.8125 -2.765625 0.8125q-2.125 0 -3.375 -1.296875q-1.234375 -1.3125 -1.234375 -3.671875q0 -2.453125 1.25 -3.796875q1.265625 -1.34375 3.265625 -1.34375q1.9375 0 3.15625 1.328125q1.234375 1.3125 1.234375 3.703125q0 0.15625 0 0.4375l-7.21875 0q0.09375 1.59375 0.90625 2.453125q0.8125 0.84375 2.015625 0.84375q0.90625 0 1.546875 -0.46875q0.640625 -0.484375 1.015625 -1.515625zm-5.390625 -2.65625l5.40625 0q-0.109375 -1.21875 -0.625 -1.828125q-0.78125 -0.953125 -2.03125 -0.953125q-1.125 0 -1.90625 0.765625q-0.765625 0.75 -0.84375 2.015625zm8.703857 -5.828125l0 -1.890625l1.75 0l0 1.5q0 1.21875 -0.28125 1.75q-0.390625 0.75 -1.21875 1.109375l-0.40625 -0.640625q0.5 -0.203125 0.734375 -0.625q0.25 -0.4375 0.28125 -1.203125l-0.859375 0zm2.8125 0l0 -1.890625l1.765625 0l0 1.5q0 1.21875 -0.28125 1.75q-0.390625 0.75 -1.21875 1.109375l-0.40625 -0.640625q0.5 -0.203125 0.734375 -0.625q0.25 -0.4375 0.265625 -1.203125l-0.859375 0zm8.380371 7.578125l0 -1.640625l5.03125 0l0 1.640625l-5.03125 0zm12.239685 4.015625l0 -13.359375l4.609375 0q1.546875 0 2.375 0.203125q1.140625 0.25 1.953125 0.953125q1.0625 0.890625 1.578125 2.28125q0.53125 1.390625 0.53125 3.171875q0 1.515625 -0.359375 2.703125q-0.359375 1.171875 -0.921875 1.9375q-0.546875 0.765625 -1.203125 1.21875q-0.65625 0.4375 -1.59375 0.671875q-0.9375 0.21875 -2.140625 0.21875l-4.828125 0zm1.765625 -1.578125l2.859375 0q1.3125 0 2.0625 -0.234375q0.75 -0.25 1.203125 -0.703125q0.625 -0.625 0.96875 -1.6875q0.359375 -1.0625 0.359375 -2.578125q0 -2.09375 -0.6875 -3.21875q-0.6875 -1.125 -1.671875 -1.5q-0.703125 -0.28125 -2.28125 -0.28125l-2.8125 0l0 10.203125zm21.832336 0.140625q1.234375 0.859375 2.265625 1.25l-0.515625 1.21875q-1.4375 -0.515625 -2.875 -1.625q-1.484375 0.828125 -3.28125 0.828125q-1.8125 0 -3.296875 -0.875q-1.46875 -0.875 -2.265625 -2.453125q-0.796875 -1.59375 -0.796875 -3.578125q0 -1.984375 0.796875 -3.59375q0.8125 -1.625 2.28125 -2.46875q1.484375 -0.859375 3.328125 -0.859375q1.84375 0 3.328125 0.890625q1.484375 0.875 2.265625 2.453125q0.78125 1.578125 0.78125 3.5625q0 1.65625 -0.5 2.96875q-0.5 1.3125 -1.515625 2.28125zm-3.890625 -2.25q1.53125 0.421875 2.515625 1.28125q1.5625 -1.421875 1.5625 -4.28125q0 -1.625 -0.546875 -2.828125q-0.546875 -1.21875 -1.609375 -1.875q-1.0625 -0.671875 -2.390625 -0.671875q-1.96875 0 -3.28125 1.359375q-1.296875 1.34375 -1.296875 4.03125q0 2.59375 1.28125 4.0q1.296875 1.390625 3.296875 1.390625q0.953125 0 1.78125 -0.359375q-0.828125 -0.53125 -1.75 -0.765625l0.4375 -1.28125zm8.261414 3.6875l0 -13.359375l1.8125 0l7.015625 10.484375l0 -10.484375l1.6875 0l0 13.359375l-1.8125 0l-7.015625 -10.5l0 10.5l-1.6875 0z" fill-rule="nonzero"/><path fill="#000000" fill-opacity="0.0" d="m393.1545 103.64367c15.303101 0 22.952667 38.039375 30.606201 76.07874c7.6535645 38.039368 15.311066 76.078735 30.622131 76.078735" fill-rule="evenodd"/><path stroke="#000000" stroke-width="1.0" stroke-linejoin="round" stroke-linecap="butt" d="m393.15454 103.64367c15.303101 0 22.952667 38.039375 30.606201 76.07873c3.8267822 19.019684 7.654541 38.039368 12.439514 52.30414c2.392456 7.1323853 5.024231 13.076035 8.014832 17.236588c0.7476196 1.0401459 1.5177307 1.9688263 2.3121033 2.7767944c0.39718628 0.40397644 0.80044556 0.77778625 1.210022 1.1202545c0.20474243 0.17121887 0.4111328 0.33462524 0.6190796 0.490036c0.104003906 0.077682495 0.20837402 0.1533966 0.3131714 0.22711182l0.02456665 0.016723633" fill-rule="evenodd"/><path fill="#000000" stroke="#000000" stroke-width="1.0" stroke-linecap="butt" d="m448.16904 255.46013l4.827759 -0.12365723l-3.777771 -3.0084991z" fill-rule="evenodd"/><path fill="#cfe2f3" d="m669.95026 120.15845l0 -35.307083l88.89581 0l0 35.307083z" fill-rule="evenodd"/><path stroke="#000000" stroke-width="1.0" stroke-linejoin="round" stroke-linecap="butt" d="m669.95026 120.15845l0 -35.307083l88.89581 0l0 35.307083z" fill-rule="evenodd"/><path fill="#000000" fill-opacity="0.0" d="m678.24036 82.01181l71.25714 0l0 38.708664l-71.25714 0z" fill-rule="evenodd"/><path fill="#000000" d="m697.7492 106.542435q-0.84375 0.71875 -1.625 1.015625q-0.78125 0.296875 -1.671875 0.296875q-1.484375 0 -2.28125 -0.71875q-0.796875 -0.734375 -0.796875 -1.859375q0 -0.65625 0.296875 -1.203125q0.3125 -0.546875 0.796875 -0.875q0.484375 -0.328125 1.09375 -0.5q0.4375 -0.109375 1.34375 -0.21875q1.84375 -0.21875 2.71875 -0.53125q0.015625 -0.3125 0.015625 -0.390625q0 -0.9375 -0.4375 -1.3125q-0.578125 -0.515625 -1.734375 -0.515625q-1.078125 0 -1.59375 0.375q-0.5 0.375 -0.75 1.328125l-1.484375 -0.203125q0.203125 -0.953125 0.65625 -1.53125q0.46875 -0.59375 1.34375 -0.90625q0.890625 -0.328125 2.046875 -0.328125q1.15625 0 1.875 0.28125q0.71875 0.265625 1.046875 0.671875q0.34375 0.40625 0.484375 1.03125q0.078125 0.390625 0.078125 1.40625l0 2.03125q0 2.125 0.09375 2.6875q0.09375 0.5625 0.390625 1.078125l-1.59375 0q-0.234375 -0.46875 -0.3125 -1.109375zm-0.125 -3.40625q-0.828125 0.34375 -2.484375 0.578125q-0.9375 0.140625 -1.328125 0.3125q-0.390625 0.171875 -0.609375 0.5q-0.203125 0.3125 -0.203125 0.71875q0 0.609375 0.453125 1.015625q0.46875 0.40625 1.359375 0.40625q0.875 0 1.5625 -0.390625q0.6875 -0.390625 1.015625 -1.046875q0.234375 -0.515625 0.234375 -1.53125l0 -0.5625zm9.762085 1.21875l1.5 0.203125q-0.234375 1.546875 -1.25 2.421875q-1.015625 0.875 -2.484375 0.875q-1.84375 0 -2.96875 -1.203125q-1.125 -1.203125 -1.125 -3.453125q0 -1.46875 0.484375 -2.546875q0.484375 -1.09375 1.46875 -1.640625q0.984375 -0.546875 2.140625 -0.546875q1.46875 0 2.390625 0.75q0.9375 0.734375 1.203125 2.09375l-1.484375 0.21875q-0.203125 -0.890625 -0.75 -1.34375q-0.53125 -0.46875 -1.296875 -0.46875q-1.140625 0 -1.875 0.828125q-0.71875 0.828125 -0.71875 2.609375q0 1.8125 0.6875 2.640625q0.703125 0.8125 1.828125 0.8125q0.890625 0 1.484375 -0.546875q0.609375 -0.5625 0.765625 -1.703125zm6.1328125 1.9375l0.21875 1.34375q-0.640625 0.140625 -1.15625 0.140625q-0.828125 0 -1.28125 -0.265625q-0.453125 -0.265625 -0.640625 -0.6875q-0.1875 -0.4375 -0.1875 -1.796875l0 -5.171875l-1.125 0l0 -1.1875l1.125 0l0 -2.21875l1.515625 -0.921875l0 3.140625l1.53125 0l0 1.1875l-1.53125 0l0 5.25q0 0.65625 0.078125 0.84375q0.078125 0.1875 0.25 0.296875q0.1875 0.109375 0.53125 0.109375q0.25 0 0.671875 -0.0625zm1.501831 -9.296875l0 -1.75l1.515625 0l0 1.75l-1.515625 0zm0 10.65625l0 -8.984375l1.515625 0l0 8.984375l-1.515625 0zm3.2716064 -4.5q0 -2.484375 1.390625 -3.6875q1.15625 -1.0 2.8125 -1.0q1.859375 0 3.03125 1.21875q1.1875 1.203125 1.1875 3.34375q0 1.734375 -0.53125 2.734375q-0.515625 1.0 -1.515625 1.546875q-0.984375 0.546875 -2.171875 0.546875q-1.875 0 -3.046875 -1.203125q-1.15625 -1.21875 -1.15625 -3.5zm1.5625 0q0 1.734375 0.75 2.59375q0.75 0.859375 1.890625 0.859375q1.140625 0 1.890625 -0.859375q0.75 -0.875 0.75 -2.640625q0 -1.65625 -0.75 -2.515625q-0.75 -0.859375 -1.890625 -0.859375q-1.140625 0 -1.890625 0.859375q-0.75 0.84375 -0.75 2.5625zm8.637085 4.5l0 -8.984375l1.375 0l0 1.28125q0.984375 -1.484375 2.859375 -1.484375q0.8125 0 1.484375 0.296875q0.6875 0.28125 1.015625 0.765625q0.34375 0.46875 0.484375 1.125q0.078125 0.421875 0.078125 1.46875l0 5.53125l-1.515625 0l0 -5.46875q0 -0.921875 -0.1875 -1.375q-0.171875 -0.46875 -0.625 -0.75q-0.453125 -0.28125 -1.0625 -0.28125q-0.96875 0 -1.671875 0.625q-0.703125 0.609375 -0.703125 2.34375l0 4.90625l-1.53125 0z" fill-rule="nonzero"/><path fill="#cfe2f3" d="m669.95026 273.37402l0 -35.307068l88.89581 0l0 35.307068z" fill-rule="evenodd"/><path stroke="#000000" stroke-width="1.0" stroke-linejoin="round" stroke-linecap="butt" d="m669.95026 273.37402l0 -35.307068l88.89581 0l0 35.307068z" fill-rule="evenodd"/><path fill="#000000" fill-opacity="0.0" d="m678.24036 235.2274l71.25714 0l0 38.708664l-71.25714 0z" fill-rule="evenodd"/><path fill="#000000" d="m697.7492 259.75803q-0.84375 0.71875 -1.625 1.015625q-0.78125 0.296875 -1.671875 0.296875q-1.484375 0 -2.28125 -0.71875q-0.796875 -0.734375 -0.796875 -1.859375q0 -0.65625 0.296875 -1.203125q0.3125 -0.546875 0.796875 -0.875q0.484375 -0.328125 1.09375 -0.5q0.4375 -0.109375 1.34375 -0.21875q1.84375 -0.21875 2.71875 -0.53125q0.015625 -0.3125 0.015625 -0.390625q0 -0.9375 -0.4375 -1.3125q-0.578125 -0.515625 -1.734375 -0.515625q-1.078125 0 -1.59375 0.375q-0.5 0.375 -0.75 1.328125l-1.484375 -0.203125q0.203125 -0.953125 0.65625 -1.53125q0.46875 -0.59375 1.34375 -0.90625q0.890625 -0.328125 2.046875 -0.328125q1.15625 0 1.875 0.28125q0.71875 0.265625 1.046875 0.671875q0.34375 0.40625 0.484375 1.03125q0.078125 0.390625 0.078125 1.40625l0 2.03125q0 2.125 0.09375 2.6875q0.09375 0.5625 0.390625 1.078125l-1.59375 0q-0.234375 -0.46875 -0.3125 -1.109375zm-0.125 -3.40625q-0.828125 0.34375 -2.484375 0.578125q-0.9375 0.140625 -1.328125 0.3125q-0.390625 0.171875 -0.609375 0.5q-0.203125 0.3125 -0.203125 0.71875q0 0.609375 0.453125 1.015625q0.46875 0.40625 1.359375 0.40625q0.875 0 1.5625 -0.390625q0.6875 -0.390625 1.015625 -1.046875q0.234375 -0.515625 0.234375 -1.53125l0 -0.5625zm9.762085 1.21875l1.5 0.203125q-0.234375 1.546875 -1.25 2.421875q-1.015625 0.875 -2.484375 0.875q-1.84375 0 -2.96875 -1.203125q-1.125 -1.203125 -1.125 -3.453125q0 -1.46875 0.484375 -2.546875q0.484375 -1.09375 1.46875 -1.640625q0.984375 -0.546875 2.140625 -0.546875q1.46875 0 2.390625 0.75q0.9375 0.734375 1.203125 2.09375l-1.484375 0.21875q-0.203125 -0.890625 -0.75 -1.34375q-0.53125 -0.46875 -1.296875 -0.46875q-1.140625 0 -1.875 0.828125q-0.71875 0.828125 -0.71875 2.609375q0 1.8125 0.6875 2.640625q0.703125 0.8125 1.828125 0.8125q0.890625 0 1.484375 -0.546875q0.609375 -0.5625 0.765625 -1.703125zm6.1328125 1.9375l0.21875 1.34375q-0.640625 0.140625 -1.15625 0.140625q-0.828125 0 -1.28125 -0.265625q-0.453125 -0.265625 -0.640625 -0.6875q-0.1875 -0.4375 -0.1875 -1.796875l0 -5.171875l-1.125 0l0 -1.1875l1.125 0l0 -2.21875l1.515625 -0.921875l0 3.140625l1.53125 0l0 1.1875l-1.53125 0l0 5.25q0 0.65625 0.078125 0.84375q0.078125 0.1875 0.25 0.296875q0.1875 0.109375 0.53125 0.109375q0.25 0 0.671875 -0.0625zm1.501831 -9.296875l0 -1.75l1.515625 0l0 1.75l-1.515625 0zm0 10.65625l0 -8.984375l1.515625 0l0 8.984375l-1.515625 0zm3.2716064 -4.5q0 -2.484375 1.390625 -3.6875q1.15625 -1.0 2.8125 -1.0q1.859375 0 3.03125 1.21875q1.1875 1.203125 1.1875 3.34375q0 1.734375 -0.53125 2.734375q-0.515625 1.0 -1.515625 1.546875q-0.984375 0.546875 -2.171875 0.546875q-1.875 0 -3.046875 -1.203125q-1.15625 -1.21875 -1.15625 -3.5zm1.5625 0q0 1.734375 0.75 2.59375q0.75 0.859375 1.890625 0.859375q1.140625 0 1.890625 -0.859375q0.75 -0.875 0.75 -2.640625q0 -1.65625 -0.75 -2.515625q-0.75 -0.859375 -1.890625 -0.859375q-1.140625 0 -1.890625 0.859375q-0.75 0.84375 -0.75 2.5625zm8.637085 4.5l0 -8.984375l1.375 0l0 1.28125q0.984375 -1.484375 2.859375 -1.484375q0.8125 0 1.484375 0.296875q0.6875 0.28125 1.015625 0.765625q0.34375 0.46875 0.484375 1.125q0.078125 0.421875 0.078125 1.46875l0 5.53125l-1.515625 0l0 -5.46875q0 -0.921875 -0.1875 -1.375q-0.171875 -0.46875 -0.625 -0.75q-0.453125 -0.28125 -1.0625 -0.28125q-0.96875 0 -1.671875 0.625q-0.703125 0.609375 -0.703125 2.34375l0 4.90625l-1.53125 0z" fill-rule="nonzero"/><path fill="#000000" fill-opacity="0.0" d="m628.6037 102.7874l41.35431 -0.28346252" fill-rule="evenodd"/><path stroke="#000000" stroke-width="1.0" stroke-linejoin="round" stroke-linecap="butt" d="m628.6037 102.7874l35.35443 -0.24234009" fill-rule="evenodd"/><path fill="#000000" stroke="#000000" stroke-width="1.0" stroke-linecap="butt" d="m663.9695 104.196754l4.5266724 -1.6828003l-4.5493164 -1.6205826z" fill-rule="evenodd"/><path fill="#000000" fill-opacity="0.0" d="m628.6037 255.80052l41.35431 -0.09448242" fill-rule="evenodd"/><path stroke="#000000" stroke-width="1.0" stroke-linejoin="round" stroke-linecap="butt" d="m628.6037 255.80052l35.35431 -0.08076477" fill-rule="evenodd"/><path fill="#000000" stroke="#000000" stroke-width="1.0" stroke-linecap="butt" d="m663.9618 257.37146l4.5343018 -1.6620789l-4.54187 -1.6413574z" fill-rule="evenodd"/><path fill="#ffffff" d="m795.96936 33.094086l0 0c0 -5.301525 4.2977295 -9.59926 9.599243 -9.59926l98.90259 0c2.5458984 0 4.987488 1.0113468 6.7877197 2.8115578c1.8002319 1.800211 2.8115234 4.2418194 2.8115234 6.7877026l0 140.19948c0 5.301529 -4.2977295 9.599258 -9.599243 9.599258l-98.90259 0c-5.3015137 0 -9.599243 -4.2977295 -9.599243 -9.599258z" fill-rule="evenodd"/><path stroke="#000000" stroke-width="1.0" stroke-linejoin="round" stroke-linecap="butt" d="m795.96936 33.094086l0 0c0 -5.301525 4.2977295 -9.59926 9.599243 -9.59926l98.90259 0c2.5458984 0 4.987488 1.0113468 6.7877197 2.8115578c1.8002319 1.800211 2.8115234 4.2418194 2.8115234 6.7877026l0 140.19948c0 5.301529 -4.2977295 9.599258 -9.599243 9.599258l-98.90259 0c-5.3015137 0 -9.599243 -4.2977295 -9.599243 -9.599258z" fill-rule="evenodd"/><path fill="#cfe2f3" d="m814.2124 65.790695l0 0c0 -5.302223 4.29834 -9.600529 9.600525 -9.600529l0 0c2.5462646 0 4.988159 1.0114822 6.7886353 2.8119316c1.800415 1.8004456 2.8118896 4.242378 2.8118896 6.788597l0 0c0 5.302223 -4.298279 9.600533 -9.600525 9.600533l0 0c-5.302185 0 -9.600525 -4.2983093 -9.600525 -9.600533z" fill-rule="evenodd"/><path stroke="#000000" stroke-width="1.0" stroke-linejoin="round" stroke-linecap="butt" d="m814.2124 65.790695l0 0c0 -5.302223 4.29834 -9.600529 9.600525 -9.600529l0 0c2.5462646 0 4.988159 1.0114822 6.7886353 2.8119316c1.800415 1.8004456 2.8118896 4.242378 2.8118896 6.788597l0 0c0 5.302223 -4.298279 9.600533 -9.600525 9.600533l0 0c-5.302185 0 -9.600525 -4.2983093 -9.600525 -9.600533z" fill-rule="evenodd"/><path fill="#cfe2f3" d="m871.8731 84.99175l0 0c0 -5.302223 4.29834 -9.600525 9.600525 -9.600525l0 0c2.5462646 0 4.988159 1.0114822 6.7886353 2.8119278c1.800415 1.8004456 2.8119507 4.242378 2.8119507 6.788597l0 0c0 5.302231 -4.29834 9.600533 -9.600586 9.600533l0 0c-5.302185 0 -9.600525 -4.2983017 -9.600525 -9.600533z" fill-rule="evenodd"/><path stroke="#000000" stroke-width="1.0" stroke-linejoin="round" stroke-linecap="butt" d="m871.8731 84.99175l0 0c0 -5.302223 4.29834 -9.600525 9.600525 -9.600525l0 0c2.5462646 0 4.988159 1.0114822 6.7886353 2.8119278c1.800415 1.8004456 2.8119507 4.242378 2.8119507 6.788597l0 0c0 5.302231 -4.29834 9.600533 -9.600586 9.600533l0 0c-5.302185 0 -9.600525 -4.2983017 -9.600525 -9.600533z" fill-rule="evenodd"/><path fill="#cfe2f3" d="m809.5073 134.97072l0 0c0 -5.302231 4.298279 -9.600525 9.600525 -9.600525l0 0c2.5462036 0 4.988159 1.0114746 6.788574 2.8119202c1.8004761 1.8004608 2.8119507 4.242386 2.8119507 6.7886047l0 0c0 5.302231 -4.298279 9.600525 -9.600525 9.600525l0 0c-5.302246 0 -9.600525 -4.298294 -9.600525 -9.600525z" fill-rule="evenodd"/><path stroke="#000000" stroke-width="1.0" stroke-linejoin="round" stroke-linecap="butt" d="m809.5073 134.97072l0 0c0 -5.302231 4.298279 -9.600525 9.600525 -9.600525l0 0c2.5462036 0 4.988159 1.0114746 6.788574 2.8119202c1.8004761 1.8004608 2.8119507 4.242386 2.8119507 6.7886047l0 0c0 5.302231 -4.298279 9.600525 -9.600525 9.600525l0 0c-5.302246 0 -9.600525 -4.298294 -9.600525 -9.600525z" fill-rule="evenodd"/><path fill="#cfe2f3" d="m881.47363 116.724625l0 0c0 -5.302223 4.29834 -9.600533 9.600586 -9.600533l0 0c2.5462036 0 4.988098 1.0114822 6.788574 2.8119354c1.800415 1.8004456 2.8119507 4.242378 2.8119507 6.788597l0 0c0 5.302223 -4.29834 9.600525 -9.600525 9.600525l0 0c-5.302246 0 -9.600586 -4.2983017 -9.600586 -9.600525z" fill-rule="evenodd"/><path stroke="#000000" stroke-width="1.0" stroke-linejoin="round" stroke-linecap="butt" d="m881.47363 116.724625l0 0c0 -5.302223 4.29834 -9.600533 9.600586 -9.600533l0 0c2.5462036 0 4.988098 1.0114822 6.788574 2.8119354c1.800415 1.8004456 2.8119507 4.242378 2.8119507 6.788597l0 0c0 5.302223 -4.29834 9.600525 -9.600525 9.600525l0 0c-5.302246 0 -9.600586 -4.2983017 -9.600586 -9.600525z" fill-rule="evenodd"/><path fill="#cfe2f3" d="m852.67206 161.95312l0 0c0 -5.302231 4.29834 -9.60054 9.600525 -9.60054l0 0c2.5462646 0 4.988159 1.0114899 6.7886353 2.8119354c1.800415 1.8004456 2.8118896 4.242386 2.8118896 6.7886047l0 0c0 5.3022156 -4.298279 9.600525 -9.600525 9.600525l0 0c-5.302185 0 -9.600525 -4.2983093 -9.600525 -9.600525z" fill-rule="evenodd"/><path stroke="#000000" stroke-width="1.0" stroke-linejoin="round" stroke-linecap="butt" d="m852.67206 161.95312l0 0c0 -5.302231 4.29834 -9.60054 9.600525 -9.60054l0 0c2.5462646 0 4.988159 1.0114899 6.7886353 2.8119354c1.800415 1.8004456 2.8118896 4.242386 2.8118896 6.7886047l0 0c0 5.3022156 -4.298279 9.600525 -9.600525 9.600525l0 0c-5.302185 0 -9.600525 -4.2983093 -9.600525 -9.600525z" fill-rule="evenodd"/><path fill="#000000" fill-opacity="0.0" d="m825.8964 128.18211l48.786133 -36.4103" fill-rule="evenodd"/><path stroke="#000000" stroke-width="1.0" stroke-linejoin="round" stroke-linecap="butt" d="m825.8964 128.18211l48.786133 -36.4103" fill-rule="evenodd"/><path fill="#000000" fill-opacity="0.0" d="m830.60156 72.57929l31.683044 79.77868" fill-rule="evenodd"/><path stroke="#000000" stroke-width="1.0" stroke-linejoin="round" stroke-linecap="butt" d="m830.60156 72.57929l31.683044 79.77868" fill-rule="evenodd"/><path fill="#000000" fill-opacity="0.0" d="m891.0742 126.32515l-22.016174 28.84143" fill-rule="evenodd"/><path stroke="#000000" stroke-width="1.0" stroke-linejoin="round" stroke-linecap="butt" d="m891.0742 126.32515l-22.016174 28.84143" fill-rule="evenodd"/><path fill="#000000" fill-opacity="0.0" d="m881.47363 116.724625l-55.584778 11.446274" fill-rule="evenodd"/><path stroke="#000000" stroke-width="1.0" stroke-linejoin="round" stroke-linecap="butt" d="m881.47363 116.724625l-55.584778 11.446274" fill-rule="evenodd"/><path fill="#000000" fill-opacity="0.0" d="m825.8964 141.75932l26.769958 20.183685" fill-rule="evenodd"/><path stroke="#000000" stroke-width="1.0" stroke-linejoin="round" stroke-linecap="butt" d="m825.8964 141.75932l26.769958 20.183685" fill-rule="evenodd"/><path fill="#000000" fill-opacity="0.0" d="m833.41345 65.790695l38.45526 19.201057" fill-rule="evenodd"/><path stroke="#000000" stroke-width="1.0" stroke-linejoin="round" stroke-linecap="butt" d="m833.41345 65.790695l38.45526 19.201057" fill-rule="evenodd"/><path fill="#000000" fill-opacity="0.0" d="m799.19574 22.123484l111.647644 0l0 25.973215l-111.647644 0z" fill-rule="evenodd"/><path fill="#000000" d="m816.21136 34.71911l1.390625 0l0 6.046875q0 1.59375 -0.359375 2.53125q-0.359375 0.921875 -1.296875 1.5q-0.9375 0.578125 -2.453125 0.578125q-1.46875 0 -2.40625 -0.5q-0.9375 -0.515625 -1.34375 -1.46875q-0.390625 -0.96875 -0.390625 -2.640625l0 -6.046875l1.390625 0l0 6.046875q0 1.375 0.25 2.015625q0.25 0.640625 0.859375 1.0q0.625 0.34375 1.53125 0.34375q1.53125 0 2.171875 -0.6875q0.65625 -0.703125 0.65625 -2.671875l0 -6.046875zm3.5374146 13.390625l0 -10.5l1.171875 0l0 0.984375q0.421875 -0.578125 0.9375 -0.859375q0.515625 -0.296875 1.265625 -0.296875q0.96875 0 1.71875 0.5q0.75 0.5 1.125 1.421875q0.375 0.90625 0.375 1.984375q0 1.171875 -0.421875 2.109375q-0.40625 0.921875 -1.21875 1.421875q-0.796875 0.5 -1.671875 0.5q-0.640625 0 -1.15625 -0.265625q-0.515625 -0.28125 -0.84375 -0.6875l0 3.6875l-1.28125 0zm1.15625 -6.65625q0 1.453125 0.59375 2.15625q0.609375 0.703125 1.453125 0.703125q0.859375 0 1.46875 -0.71875q0.609375 -0.734375 0.609375 -2.25q0 -1.453125 -0.609375 -2.171875q-0.59375 -0.734375 -1.421875 -0.734375q-0.8125 0 -1.453125 0.78125q-0.640625 0.765625 -0.640625 2.234375zm11.916748 3.75l0 -0.953125q-0.71875 1.125 -2.125 1.125q-0.90625 0 -1.671875 -0.5q-0.75 -0.5 -1.171875 -1.390625q-0.421875 -0.90625 -0.421875 -2.078125q0 -1.140625 0.375 -2.0625q0.390625 -0.921875 1.140625 -1.40625q0.765625 -0.5 1.703125 -0.5q0.6875 0 1.21875 0.296875q0.53125 0.28125 0.875 0.734375l0 -3.75l1.28125 0l0 10.484375l-1.203125 0zm-4.0625 -3.796875q0 1.46875 0.609375 2.1875q0.625 0.71875 1.453125 0.71875q0.84375 0 1.4375 -0.6875q0.59375 -0.6875 0.59375 -2.109375q0 -1.5625 -0.609375 -2.28125q-0.59375 -0.734375 -1.484375 -0.734375q-0.84375 0 -1.421875 0.703125q-0.578125 0.703125 -0.578125 2.203125zm12.244812 2.859375q-0.71875 0.609375 -1.375 0.859375q-0.65625 0.25 -1.421875 0.25q-1.25 0 -1.921875 -0.609375q-0.671875 -0.609375 -0.671875 -1.5625q0 -0.5625 0.25 -1.015625q0.25 -0.46875 0.65625 -0.75q0.421875 -0.28125 0.9375 -0.421875q0.375 -0.09375 1.140625 -0.1875q1.5625 -0.1875 2.296875 -0.453125q0.015625 -0.265625 0.015625 -0.328125q0 -0.796875 -0.375 -1.109375q-0.484375 -0.4375 -1.453125 -0.4375q-0.921875 0 -1.359375 0.328125q-0.421875 0.3125 -0.625 1.109375l-1.265625 -0.171875q0.171875 -0.796875 0.5625 -1.296875q0.390625 -0.5 1.140625 -0.765625q0.75 -0.265625 1.71875 -0.265625q0.984375 0 1.59375 0.234375q0.609375 0.21875 0.890625 0.5625q0.28125 0.34375 0.40625 0.875q0.0625 0.328125 0.0625 1.1875l0 1.71875q0 1.796875 0.078125 2.28125q0.078125 0.46875 0.328125 0.90625l-1.34375 0q-0.203125 -0.40625 -0.265625 -0.9375zm-0.109375 -2.875q-0.703125 0.28125 -2.09375 0.484375q-0.796875 0.109375 -1.125 0.265625q-0.328125 0.140625 -0.515625 0.421875q-0.171875 0.265625 -0.171875 0.59375q0 0.515625 0.390625 0.859375q0.390625 0.34375 1.140625 0.34375q0.734375 0 1.3125 -0.3125q0.59375 -0.328125 0.859375 -0.890625q0.203125 -0.4375 0.203125 -1.296875l0 -0.46875zm6.119873 2.65625l0.1875 1.140625q-0.546875 0.109375 -0.984375 0.109375q-0.6875 0 -1.078125 -0.21875q-0.390625 -0.21875 -0.546875 -0.578125q-0.15625 -0.359375 -0.15625 -1.515625l0 -4.375l-0.953125 0l0 -1.0l0.953125 0l0 -1.890625l1.28125 -0.765625l0 2.65625l1.296875 0l0 1.0l-1.296875 0l0 4.4375q0 0.546875 0.0625 0.71875q0.078125 0.15625 0.21875 0.25q0.15625 0.078125 0.453125 0.078125q0.203125 0 0.5625 -0.046875zm6.4625854 -1.296875l1.328125 0.171875q-0.3125 1.171875 -1.171875 1.8125q-0.84375 0.640625 -2.171875 0.640625q-1.671875 0 -2.65625 -1.015625q-0.96875 -1.03125 -0.96875 -2.890625q0 -1.921875 0.984375 -2.96875q1.0 -1.0625 2.578125 -1.0625q1.515625 0 2.484375 1.03125q0.96875 1.03125 0.96875 2.921875q0 0.109375 -0.015625 0.34375l-5.65625 0q0.0625 1.25 0.703125 1.921875q0.640625 0.65625 1.59375 0.65625q0.703125 0 1.203125 -0.359375q0.5 -0.375 0.796875 -1.203125zm-4.234375 -2.078125l4.25 0q-0.09375 -0.953125 -0.484375 -1.4375q-0.625 -0.75 -1.609375 -0.75q-0.875 0 -1.484375 0.59375q-0.609375 0.59375 -0.671875 1.59375zm16.332458 0.421875l0 -1.234375l4.4375 -0.015625l0 3.90625q-1.03125 0.8125 -2.125 1.21875q-1.078125 0.40625 -2.21875 0.40625q-1.546875 0 -2.8125 -0.65625q-1.265625 -0.65625 -1.90625 -1.90625q-0.640625 -1.265625 -0.640625 -2.8125q0 -1.53125 0.640625 -2.84375q0.640625 -1.328125 1.84375 -1.96875q1.203125 -0.65625 2.765625 -0.65625q1.140625 0 2.0625 0.375q0.921875 0.359375 1.4375 1.03125q0.53125 0.65625 0.796875 1.703125l-1.25 0.34375q-0.234375 -0.796875 -0.59375 -1.25q-0.34375 -0.46875 -1.0 -0.734375q-0.65625 -0.28125 -1.4375 -0.28125q-0.953125 0 -1.65625 0.296875q-0.6875 0.28125 -1.125 0.765625q-0.421875 0.46875 -0.65625 1.03125q-0.390625 0.96875 -0.390625 2.109375q0 1.40625 0.46875 2.359375q0.484375 0.9375 1.40625 1.390625q0.9375 0.453125 1.96875 0.453125q0.90625 0 1.765625 -0.34375q0.859375 -0.34375 1.296875 -0.734375l0 -1.953125l-3.078125 0zm6.3063965 4.109375l0 -7.59375l1.15625 0l0 1.140625q0.453125 -0.796875 0.828125 -1.046875q0.375 -0.265625 0.8125 -0.265625q0.65625 0 1.328125 0.40625l-0.4375 1.203125q-0.46875 -0.28125 -0.953125 -0.28125q-0.421875 0 -0.765625 0.25q-0.328125 0.25 -0.46875 0.703125q-0.21875 0.6875 -0.21875 1.5l0 3.984375l-1.28125 0zm9.849365 -0.9375q-0.71875 0.609375 -1.375 0.859375q-0.65625 0.25 -1.421875 0.25q-1.25 0 -1.921875 -0.609375q-0.671875 -0.609375 -0.671875 -1.5625q0 -0.5625 0.25 -1.015625q0.25 -0.46875 0.65625 -0.75q0.421875 -0.28125 0.9375 -0.421875q0.375 -0.09375 1.140625 -0.1875q1.5625 -0.1875 2.296875 -0.453125q0.015625 -0.265625 0.015625 -0.328125q0 -0.796875 -0.375 -1.109375q-0.484375 -0.4375 -1.453125 -0.4375q-0.921875 0 -1.359375 0.328125q-0.421875 0.3125 -0.625 1.109375l-1.265625 -0.171875q0.171875 -0.796875 0.5625 -1.296875q0.390625 -0.5 1.140625 -0.765625q0.75 -0.265625 1.71875 -0.265625q0.984375 0 1.59375 0.234375q0.609375 0.21875 0.890625 0.5625q0.28125 0.34375 0.40625 0.875q0.0625 0.328125 0.0625 1.1875l0 1.71875q0 1.796875 0.078125 2.28125q0.078125 0.46875 0.328125 0.90625l-1.34375 0q-0.203125 -0.40625 -0.265625 -0.9375zm-0.109375 -2.875q-0.703125 0.28125 -2.09375 0.484375q-0.796875 0.109375 -1.125 0.265625q-0.328125 0.140625 -0.515625 0.421875q-0.171875 0.265625 -0.171875 0.59375q0 0.515625 0.390625 0.859375q0.390625 0.34375 1.140625 0.34375q0.734375 0 1.3125 -0.3125q0.59375 -0.328125 0.859375 -0.890625q0.203125 -0.4375 0.203125 -1.296875l0 -0.46875zm3.307373 6.71875l0 -10.5l1.171875 0l0 0.984375q0.421875 -0.578125 0.9375 -0.859375q0.515625 -0.296875 1.265625 -0.296875q0.96875 0 1.71875 0.5q0.75 0.5 1.125 1.421875q0.375 0.90625 0.375 1.984375q0 1.171875 -0.421875 2.109375q-0.40625 0.921875 -1.21875 1.421875q-0.796875 0.5 -1.671875 0.5q-0.640625 0 -1.15625 -0.265625q-0.515625 -0.28125 -0.84375 -0.6875l0 3.6875l-1.28125 0zm1.15625 -6.65625q0 1.453125 0.59375 2.15625q0.609375 0.703125 1.453125 0.703125q0.859375 0 1.46875 -0.71875q0.609375 -0.734375 0.609375 -2.25q0 -1.453125 -0.609375 -2.171875q-0.59375 -0.734375 -1.421875 -0.734375q-0.8125 0 -1.453125 0.78125q-0.640625 0.765625 -0.640625 2.234375zm6.994873 3.75l0 -10.484375l1.28125 0l0 3.75q0.90625 -1.03125 2.28125 -1.03125q0.84375 0 1.46875 0.328125q0.625 0.328125 0.890625 0.921875q0.265625 0.578125 0.265625 1.703125l0 4.8125l-1.28125 0l0 -4.8125q0 -0.96875 -0.421875 -1.40625q-0.421875 -0.4375 -1.1875 -0.4375q-0.578125 0 -1.078125 0.296875q-0.5 0.296875 -0.71875 0.8125q-0.21875 0.5 -0.21875 1.390625l0 4.15625l-1.28125 0z" fill-rule="nonzero"/><path fill="#000000" fill-opacity="0.0" d="m823.8129 75.39123l-4.692871 49.984253" fill-rule="evenodd"/><path stroke="#ff0000" stroke-width="2.0" stroke-linejoin="round" stroke-linecap="butt" d="m823.8129 75.39123l-4.692871 49.984253" fill-rule="evenodd"/><path fill="#000000" fill-opacity="0.0" d="m758.84607 102.504906l37.13385 0.69290924" fill-rule="evenodd"/><path stroke="#000000" stroke-width="1.0" stroke-linejoin="round" stroke-linecap="butt" d="m758.84607 102.5049l31.134888 0.5809784" fill-rule="evenodd"/><path fill="#000000" stroke="#000000" stroke-width="1.0" stroke-linecap="butt" d="m789.95013 104.73732l4.568115 -1.5667801l-4.5064697 -1.7361069z" fill-rule="evenodd"/><path fill="#000000" fill-opacity="0.0" d="m758.84607 255.72049l37.13385 0" fill-rule="evenodd"/><path stroke="#000000" stroke-width="1.0" stroke-linejoin="round" stroke-linecap="butt" d="m758.84607 255.72049l31.13385 0" fill-rule="evenodd"/><path fill="#000000" stroke="#000000" stroke-width="1.0" stroke-linecap="butt" d="m789.9799 257.37222l4.538086 -1.6517334l-4.538086 -1.6517334z" fill-rule="evenodd"/><path fill="#ffffff" d="m795.96936 200.00931l0 0c0 -5.301529 4.2977295 -9.599258 9.599243 -9.599258l98.90259 0c2.5458984 0 4.987488 1.0113373 6.7877197 2.811554c1.8002319 1.8002014 2.8115234 4.2418213 2.8115234 6.7877045l0 140.19946c0 5.301544 -4.2977295 9.599274 -9.599243 9.599274l-98.90259 0c-5.3015137 0 -9.599243 -4.2977295 -9.599243 -9.599274z" fill-rule="evenodd"/><path stroke="#000000" stroke-width="1.0" stroke-linejoin="round" stroke-linecap="butt" d="m795.96936 200.00931l0 0c0 -5.301529 4.2977295 -9.599258 9.599243 -9.599258l98.90259 0c2.5458984 0 4.987488 1.0113373 6.7877197 2.811554c1.8002319 1.8002014 2.8115234 4.2418213 2.8115234 6.7877045l0 140.19946c0 5.301544 -4.2977295 9.599274 -9.599243 9.599274l-98.90259 0c-5.3015137 0 -9.599243 -4.2977295 -9.599243 -9.599274z" fill-rule="evenodd"/><path fill="#cfe2f3" d="m814.2124 232.70592l0 0c0 -5.302231 4.29834 -9.600525 9.600525 -9.600525l0 0c2.5462646 0 4.988159 1.0114746 6.7886353 2.8119202c1.800415 1.8004456 2.8118896 4.242386 2.8118896 6.7886047l0 0c0 5.3022156 -4.298279 9.600525 -9.600525 9.600525l0 0c-5.302185 0 -9.600525 -4.2983093 -9.600525 -9.600525z" fill-rule="evenodd"/><path stroke="#000000" stroke-width="1.0" stroke-linejoin="round" stroke-linecap="butt" d="m814.2124 232.70592l0 0c0 -5.302231 4.29834 -9.600525 9.600525 -9.600525l0 0c2.5462646 0 4.988159 1.0114746 6.7886353 2.8119202c1.800415 1.8004456 2.8118896 4.242386 2.8118896 6.7886047l0 0c0 5.3022156 -4.298279 9.600525 -9.600525 9.600525l0 0c-5.302185 0 -9.600525 -4.2983093 -9.600525 -9.600525z" fill-rule="evenodd"/><path fill="#cfe2f3" d="m871.8731 251.90697l0 0c0 -5.3022156 4.29834 -9.600525 9.600525 -9.600525l0 0c2.5462646 0 4.988159 1.0114899 6.7886353 2.8119354c1.800415 1.8004456 2.8119507 4.2423706 2.8119507 6.7885895l0 0c0 5.302231 -4.29834 9.60054 -9.600586 9.60054l0 0c-5.302185 0 -9.600525 -4.2983093 -9.600525 -9.60054z" fill-rule="evenodd"/><path stroke="#000000" stroke-width="1.0" stroke-linejoin="round" stroke-linecap="butt" d="m871.8731 251.90697l0 0c0 -5.3022156 4.29834 -9.600525 9.600525 -9.600525l0 0c2.5462646 0 4.988159 1.0114899 6.7886353 2.8119354c1.800415 1.8004456 2.8119507 4.2423706 2.8119507 6.7885895l0 0c0 5.302231 -4.29834 9.60054 -9.600586 9.60054l0 0c-5.302185 0 -9.600525 -4.2983093 -9.600525 -9.60054z" fill-rule="evenodd"/><path fill="#cfe2f3" d="m809.5073 301.88593l0 0c0 -5.3022156 4.298279 -9.600525 9.600525 -9.600525l0 0c2.5462036 0 4.988159 1.0114746 6.788574 2.8119507c1.8004761 1.8004456 2.8119507 4.2423706 2.8119507 6.788574l0 0c0 5.302246 -4.298279 9.600555 -9.600525 9.600555l0 0c-5.302246 0 -9.600525 -4.2983093 -9.600525 -9.600555z" fill-rule="evenodd"/><path stroke="#000000" stroke-width="1.0" stroke-linejoin="round" stroke-linecap="butt" d="m809.5073 301.88593l0 0c0 -5.3022156 4.298279 -9.600525 9.600525 -9.600525l0 0c2.5462036 0 4.988159 1.0114746 6.788574 2.8119507c1.8004761 1.8004456 2.8119507 4.2423706 2.8119507 6.788574l0 0c0 5.302246 -4.298279 9.600555 -9.600525 9.600555l0 0c-5.302246 0 -9.600525 -4.2983093 -9.600525 -9.600555z" fill-rule="evenodd"/><path fill="#cfe2f3" d="m881.47363 283.63983l0 0c0 -5.3022156 4.29834 -9.600525 9.600586 -9.600525l0 0c2.5462036 0 4.988098 1.0114746 6.788574 2.8119507c1.800415 1.8004456 2.8119507 4.2423706 2.8119507 6.788574l0 0c0 5.302246 -4.29834 9.600525 -9.600525 9.600525l0 0c-5.302246 0 -9.600586 -4.298279 -9.600586 -9.600525z" fill-rule="evenodd"/><path stroke="#000000" stroke-width="1.0" stroke-linejoin="round" stroke-linecap="butt" d="m881.47363 283.63983l0 0c0 -5.3022156 4.29834 -9.600525 9.600586 -9.600525l0 0c2.5462036 0 4.988098 1.0114746 6.788574 2.8119507c1.800415 1.8004456 2.8119507 4.2423706 2.8119507 6.788574l0 0c0 5.302246 -4.29834 9.600525 -9.600525 9.600525l0 0c-5.302246 0 -9.600586 -4.298279 -9.600586 -9.600525z" fill-rule="evenodd"/><path fill="#cfe2f3" d="m852.67206 328.86835l0 0c0 -5.302246 4.29834 -9.600525 9.600525 -9.600525l0 0c2.5462646 0 4.988159 1.0114746 6.7886353 2.8119202c1.800415 1.8004456 2.8118896 4.2423706 2.8118896 6.7886047l0 0c0 5.3022156 -4.298279 9.600525 -9.600525 9.600525l0 0c-5.302185 0 -9.600525 -4.2983093 -9.600525 -9.600525z" fill-rule="evenodd"/><path stroke="#000000" stroke-width="1.0" stroke-linejoin="round" stroke-linecap="butt" d="m852.67206 328.86835l0 0c0 -5.302246 4.29834 -9.600525 9.600525 -9.600525l0 0c2.5462646 0 4.988159 1.0114746 6.7886353 2.8119202c1.800415 1.8004456 2.8118896 4.2423706 2.8118896 6.7886047l0 0c0 5.3022156 -4.298279 9.600525 -9.600525 9.600525l0 0c-5.302185 0 -9.600525 -4.2983093 -9.600525 -9.600525z" fill-rule="evenodd"/><path fill="#000000" fill-opacity="0.0" d="m825.8964 295.09735l48.786133 -36.41031" fill-rule="evenodd"/><path stroke="#ff0000" stroke-width="2.0" stroke-linejoin="round" stroke-linecap="butt" stroke-dasharray="8.0,6.0" d="m825.8964 295.09735l48.786133 -36.41031" fill-rule="evenodd"/><path fill="#000000" fill-opacity="0.0" d="m830.60156 239.4945l31.683044 79.77869" fill-rule="evenodd"/><path stroke="#000000" stroke-width="1.0" stroke-linejoin="round" stroke-linecap="butt" d="m830.60156 239.4945l31.683044 79.77869" fill-rule="evenodd"/><path fill="#000000" fill-opacity="0.0" d="m891.0742 293.24036l-22.016174 28.84143" fill-rule="evenodd"/><path stroke="#000000" stroke-width="1.0" stroke-linejoin="round" stroke-linecap="butt" d="m891.0742 293.24036l-22.016174 28.84143" fill-rule="evenodd"/><path fill="#000000" fill-opacity="0.0" d="m881.47363 283.63983l-55.584778 11.446289" fill-rule="evenodd"/><path stroke="#000000" stroke-width="1.0" stroke-linejoin="round" stroke-linecap="butt" d="m881.47363 283.63983l-55.584778 11.446289" fill-rule="evenodd"/><path fill="#000000" fill-opacity="0.0" d="m825.8964 308.67453l26.769958 20.183685" fill-rule="evenodd"/><path stroke="#000000" stroke-width="1.0" stroke-linejoin="round" stroke-linecap="butt" d="m825.8964 308.67453l26.769958 20.183685" fill-rule="evenodd"/><path fill="#000000" fill-opacity="0.0" d="m833.41345 232.70592l38.45526 19.20105" fill-rule="evenodd"/><path stroke="#000000" stroke-width="1.0" stroke-linejoin="round" stroke-linecap="butt" d="m833.41345 232.70592l38.45526 19.20105" fill-rule="evenodd"/><path fill="#000000" fill-opacity="0.0" d="m799.19574 189.0387l111.647644 0l0 25.97322l-111.647644 0z" fill-rule="evenodd"/><path fill="#000000" d="m816.21136 201.63432l1.390625 0l0 6.046875q0 1.59375 -0.359375 2.53125q-0.359375 0.921875 -1.296875 1.5q-0.9375 0.578125 -2.453125 0.578125q-1.46875 0 -2.40625 -0.5q-0.9375 -0.515625 -1.34375 -1.46875q-0.390625 -0.96875 -0.390625 -2.640625l0 -6.046875l1.390625 0l0 6.046875q0 1.375 0.25 2.015625q0.25 0.640625 0.859375 1.0q0.625 0.34375 1.53125 0.34375q1.53125 0 2.171875 -0.6875q0.65625 -0.703125 0.65625 -2.671875l0 -6.046875zm3.5374146 13.390625l0 -10.5l1.171875 0l0 0.984375q0.421875 -0.578125 0.9375 -0.859375q0.515625 -0.296875 1.265625 -0.296875q0.96875 0 1.71875 0.5q0.75 0.5 1.125 1.421875q0.375 0.90625 0.375 1.984375q0 1.171875 -0.421875 2.109375q-0.40625 0.921875 -1.21875 1.421875q-0.796875 0.5 -1.671875 0.5q-0.640625 0 -1.15625 -0.265625q-0.515625 -0.28125 -0.84375 -0.6875l0 3.6875l-1.28125 0zm1.15625 -6.65625q0 1.453125 0.59375 2.15625q0.609375 0.703125 1.453125 0.703125q0.859375 0 1.46875 -0.71875q0.609375 -0.734375 0.609375 -2.25q0 -1.453125 -0.609375 -2.171875q-0.59375 -0.734375 -1.421875 -0.734375q-0.8125 0 -1.453125 0.78125q-0.640625 0.765625 -0.640625 2.234375zm11.916748 3.75l0 -0.953125q-0.71875 1.125 -2.125 1.125q-0.90625 0 -1.671875 -0.5q-0.75 -0.5 -1.171875 -1.390625q-0.421875 -0.90625 -0.421875 -2.078125q0 -1.140625 0.375 -2.0625q0.390625 -0.921875 1.140625 -1.40625q0.765625 -0.5 1.703125 -0.5q0.6875 0 1.21875 0.296875q0.53125 0.28125 0.875 0.734375l0 -3.75l1.28125 0l0 10.484375l-1.203125 0zm-4.0625 -3.796875q0 1.46875 0.609375 2.1875q0.625 0.71875 1.453125 0.71875q0.84375 0 1.4375 -0.6875q0.59375 -0.6875 0.59375 -2.109375q0 -1.5625 -0.609375 -2.28125q-0.59375 -0.734375 -1.484375 -0.734375q-0.84375 0 -1.421875 0.703125q-0.578125 0.703125 -0.578125 2.203125zm12.244812 2.859375q-0.71875 0.609375 -1.375 0.859375q-0.65625 0.25 -1.421875 0.25q-1.25 0 -1.921875 -0.609375q-0.671875 -0.609375 -0.671875 -1.5625q0 -0.5625 0.25 -1.015625q0.25 -0.46875 0.65625 -0.75q0.421875 -0.28125 0.9375 -0.421875q0.375 -0.09375 1.140625 -0.1875q1.5625 -0.1875 2.296875 -0.453125q0.015625 -0.265625 0.015625 -0.328125q0 -0.796875 -0.375 -1.109375q-0.484375 -0.4375 -1.453125 -0.4375q-0.921875 0 -1.359375 0.328125q-0.421875 0.3125 -0.625 1.109375l-1.265625 -0.171875q0.171875 -0.796875 0.5625 -1.296875q0.390625 -0.5 1.140625 -0.765625q0.75 -0.265625 1.71875 -0.265625q0.984375 0 1.59375 0.234375q0.609375 0.21875 0.890625 0.5625q0.28125 0.34375 0.40625 0.875q0.0625 0.328125 0.0625 1.1875l0 1.71875q0 1.796875 0.078125 2.28125q0.078125 0.46875 0.328125 0.90625l-1.34375 0q-0.203125 -0.40625 -0.265625 -0.9375zm-0.109375 -2.875q-0.703125 0.28125 -2.09375 0.484375q-0.796875 0.109375 -1.125 0.265625q-0.328125 0.140625 -0.515625 0.421875q-0.171875 0.265625 -0.171875 0.59375q0 0.515625 0.390625 0.859375q0.390625 0.34375 1.140625 0.34375q0.734375 0 1.3125 -0.3125q0.59375 -0.328125 0.859375 -0.890625q0.203125 -0.4375 0.203125 -1.296875l0 -0.46875zm6.119873 2.65625l0.1875 1.140625q-0.546875 0.109375 -0.984375 0.109375q-0.6875 0 -1.078125 -0.21875q-0.390625 -0.21875 -0.546875 -0.578125q-0.15625 -0.359375 -0.15625 -1.515625l0 -4.375l-0.953125 0l0 -1.0l0.953125 0l0 -1.890625l1.28125 -0.765625l0 2.65625l1.296875 0l0 1.0l-1.296875 0l0 4.4375q0 0.546875 0.0625 0.71875q0.078125 0.15625 0.21875 0.25q0.15625 0.078125 0.453125 0.078125q0.203125 0 0.5625 -0.046875zm6.4625854 -1.296875l1.328125 0.171875q-0.3125 1.171875 -1.171875 1.8125q-0.84375 0.640625 -2.171875 0.640625q-1.671875 0 -2.65625 -1.015625q-0.96875 -1.03125 -0.96875 -2.890625q0 -1.921875 0.984375 -2.96875q1.0 -1.0625 2.578125 -1.0625q1.515625 0 2.484375 1.03125q0.96875 1.03125 0.96875 2.921875q0 0.109375 -0.015625 0.34375l-5.65625 0q0.0625 1.25 0.703125 1.921875q0.640625 0.65625 1.59375 0.65625q0.703125 0 1.203125 -0.359375q0.5 -0.375 0.796875 -1.203125zm-4.234375 -2.078125l4.25 0q-0.09375 -0.953125 -0.484375 -1.4375q-0.625 -0.75 -1.609375 -0.75q-0.875 0 -1.484375 0.59375q-0.609375 0.59375 -0.671875 1.59375zm16.332458 0.421875l0 -1.234375l4.4375 -0.015625l0 3.90625q-1.03125 0.8125 -2.125 1.21875q-1.078125 0.40625 -2.21875 0.40625q-1.546875 0 -2.8125 -0.65625q-1.265625 -0.65625 -1.90625 -1.90625q-0.640625 -1.265625 -0.640625 -2.8125q0 -1.53125 0.640625 -2.84375q0.640625 -1.328125 1.84375 -1.96875q1.203125 -0.65625 2.765625 -0.65625q1.140625 0 2.0625 0.375q0.921875 0.359375 1.4375 1.03125q0.53125 0.65625 0.796875 1.703125l-1.25 0.34375q-0.234375 -0.796875 -0.59375 -1.25q-0.34375 -0.46875 -1.0 -0.734375q-0.65625 -0.28125 -1.4375 -0.28125q-0.953125 0 -1.65625 0.296875q-0.6875 0.28125 -1.125 0.765625q-0.421875 0.46875 -0.65625 1.03125q-0.390625 0.96875 -0.390625 2.109375q0 1.40625 0.46875 2.359375q0.484375 0.9375 1.40625 1.390625q0.9375 0.453125 1.96875 0.453125q0.90625 0 1.765625 -0.34375q0.859375 -0.34375 1.296875 -0.734375l0 -1.953125l-3.078125 0zm6.3063965 4.109375l0 -7.59375l1.15625 0l0 1.140625q0.453125 -0.796875 0.828125 -1.046875q0.375 -0.265625 0.8125 -0.265625q0.65625 0 1.328125 0.40625l-0.4375 1.203125q-0.46875 -0.28125 -0.953125 -0.28125q-0.421875 0 -0.765625 0.25q-0.328125 0.25 -0.46875 0.703125q-0.21875 0.6875 -0.21875 1.5l0 3.984375l-1.28125 0zm9.849365 -0.9375q-0.71875 0.609375 -1.375 0.859375q-0.65625 0.25 -1.421875 0.25q-1.25 0 -1.921875 -0.609375q-0.671875 -0.609375 -0.671875 -1.5625q0 -0.5625 0.25 -1.015625q0.25 -0.46875 0.65625 -0.75q0.421875 -0.28125 0.9375 -0.421875q0.375 -0.09375 1.140625 -0.1875q1.5625 -0.1875 2.296875 -0.453125q0.015625 -0.265625 0.015625 -0.328125q0 -0.796875 -0.375 -1.109375q-0.484375 -0.4375 -1.453125 -0.4375q-0.921875 0 -1.359375 0.328125q-0.421875 0.3125 -0.625 1.109375l-1.265625 -0.171875q0.171875 -0.796875 0.5625 -1.296875q0.390625 -0.5 1.140625 -0.765625q0.75 -0.265625 1.71875 -0.265625q0.984375 0 1.59375 0.234375q0.609375 0.21875 0.890625 0.5625q0.28125 0.34375 0.40625 0.875q0.0625 0.328125 0.0625 1.1875l0 1.71875q0 1.796875 0.078125 2.28125q0.078125 0.46875 0.328125 0.90625l-1.34375 0q-0.203125 -0.40625 -0.265625 -0.9375zm-0.109375 -2.875q-0.703125 0.28125 -2.09375 0.484375q-0.796875 0.109375 -1.125 0.265625q-0.328125 0.140625 -0.515625 0.421875q-0.171875 0.265625 -0.171875 0.59375q0 0.515625 0.390625 0.859375q0.390625 0.34375 1.140625 0.34375q0.734375 0 1.3125 -0.3125q0.59375 -0.328125 0.859375 -0.890625q0.203125 -0.4375 0.203125 -1.296875l0 -0.46875zm3.307373 6.71875l0 -10.5l1.171875 0l0 0.984375q0.421875 -0.578125 0.9375 -0.859375q0.515625 -0.296875 1.265625 -0.296875q0.96875 0 1.71875 0.5q0.75 0.5 1.125 1.421875q0.375 0.90625 0.375 1.984375q0 1.171875 -0.421875 2.109375q-0.40625 0.921875 -1.21875 1.421875q-0.796875 0.5 -1.671875 0.5q-0.640625 0 -1.15625 -0.265625q-0.515625 -0.28125 -0.84375 -0.6875l0 3.6875l-1.28125 0zm1.15625 -6.65625q0 1.453125 0.59375 2.15625q0.609375 0.703125 1.453125 0.703125q0.859375 0 1.46875 -0.71875q0.609375 -0.734375 0.609375 -2.25q0 -1.453125 -0.609375 -2.171875q-0.59375 -0.734375 -1.421875 -0.734375q-0.8125 0 -1.453125 0.78125q-0.640625 0.765625 -0.640625 2.234375zm6.994873 3.75l0 -10.484375l1.28125 0l0 3.75q0.90625 -1.03125 2.28125 -1.03125q0.84375 0 1.46875 0.328125q0.625 0.328125 0.890625 0.921875q0.265625 0.578125 0.265625 1.703125l0 4.8125l-1.28125 0l0 -4.8125q0 -0.96875 -0.421875 -1.40625q-0.421875 -0.4375 -1.1875 -0.4375q-0.578125 0 -1.078125 0.296875q-0.5 0.296875 -0.71875 0.8125q-0.21875 0.5 -0.21875 1.390625l0 4.15625l-1.28125 0z" fill-rule="nonzero"/><path fill="#ffffff" d="m951.1942 105.3817l0 0c0 -6.2873917 5.096924 -11.384323 11.384338 -11.384323l117.29437 0c3.019287 0 5.914917 1.1994171 8.049927 3.3343887c2.1350098 2.1349716 3.3343506 5.0306244 3.3343506 8.049934l0 166.27074c0 6.287384 -5.096924 11.384308 -11.384277 11.384308l-117.29437 0c-6.2874146 0 -11.384338 -5.096924 -11.384338 -11.384308z" fill-rule="evenodd"/><path stroke="#000000" stroke-width="1.0" stroke-linejoin="round" stroke-linecap="butt" d="m951.1942 105.3817l0 0c0 -6.2873917 5.096924 -11.384323 11.384338 -11.384323l117.29437 0c3.019287 0 5.914917 1.1994171 8.049927 3.3343887c2.1350098 2.1349716 3.3343506 5.0306244 3.3343506 8.049934l0 166.27074c0 6.287384 -5.096924 11.384308 -11.384277 11.384308l-117.29437 0c-6.2874146 0 -11.384338 -5.096924 -11.384338 -11.384308z" fill-rule="evenodd"/><path fill="#000000" fill-opacity="0.0" d="m961.93774 91.69029l118.11023 0l0 30.803146l-118.11023 0z" fill-rule="evenodd"/><path fill="#000000" d="m977.5315 111.55029l0 -1.34375l4.859375 0l0 4.25q-1.125 0.890625 -2.3125 1.34375q-1.1875 0.453125 -2.4375 0.453125q-1.6875 0 -3.0625 -0.71875q-1.375 -0.734375 -2.078125 -2.09375q-0.703125 -1.375 -0.703125 -3.0625q0 -1.671875 0.6875 -3.125q0.703125 -1.453125 2.015625 -2.15625q1.3125 -0.703125 3.03125 -0.703125q1.234375 0 2.234375 0.40625q1.015625 0.40625 1.578125 1.125q0.578125 0.71875 0.875 1.875l-1.375 0.375q-0.25 -0.875 -0.640625 -1.375q-0.375 -0.5 -1.09375 -0.796875q-0.703125 -0.3125 -1.578125 -0.3125q-1.03125 0 -1.796875 0.328125q-0.75 0.3125 -1.21875 0.828125q-0.46875 0.515625 -0.71875 1.125q-0.4375 1.0625 -0.4375 2.3125q0 1.53125 0.515625 2.5625q0.53125 1.03125 1.53125 1.53125q1.015625 0.5 2.15625 0.5q0.984375 0 1.921875 -0.375q0.9375 -0.390625 1.421875 -0.8125l0 -2.140625l-3.375 0zm6.8984375 4.5l0 -8.296875l1.265625 0l0 1.25q0.484375 -0.875 0.890625 -1.15625q0.40625 -0.28125 0.90625 -0.28125q0.703125 0 1.4375 0.453125l-0.484375 1.296875q-0.515625 -0.296875 -1.03125 -0.296875q-0.453125 0 -0.828125 0.28125q-0.359375 0.265625 -0.515625 0.765625q-0.234375 0.75 -0.234375 1.640625l0 4.34375l-1.40625 0zm10.75 -1.03125q-0.78125 0.671875 -1.5 0.953125q-0.71875 0.265625 -1.546875 0.265625q-1.375 0 -2.109375 -0.671875q-0.734375 -0.671875 -0.734375 -1.703125q0 -0.609375 0.28125 -1.109375q0.28125 -0.515625 0.71875 -0.8125q0.453125 -0.3125 1.015625 -0.46875q0.421875 -0.109375 1.25 -0.203125q1.703125 -0.203125 2.515625 -0.484375q0 -0.296875 0 -0.375q0 -0.859375 -0.390625 -1.203125q-0.546875 -0.484375 -1.609375 -0.484375q-0.984375 0 -1.46875 0.359375q-0.46875 0.34375 -0.6875 1.21875l-1.375 -0.1875q0.1875 -0.875 0.609375 -1.421875q0.4375 -0.546875 1.25 -0.828125q0.8125 -0.296875 1.875 -0.296875q1.0625 0 1.71875 0.25q0.671875 0.25 0.984375 0.625q0.3125 0.375 0.4375 0.953125q0.078125 0.359375 0.078125 1.296875l0 1.875q0 1.96875 0.078125 2.484375q0.09375 0.515625 0.359375 1.0l-1.46875 0q-0.21875 -0.4375 -0.28125 -1.03125zm-0.109375 -3.140625q-0.765625 0.3125 -2.296875 0.53125q-0.875 0.125 -1.234375 0.28125q-0.359375 0.15625 -0.5625 0.46875q-0.1875 0.296875 -0.1875 0.65625q0 0.5625 0.421875 0.9375q0.4375 0.375 1.25 0.375q0.8125 0 1.4375 -0.34375q0.640625 -0.359375 0.9375 -0.984375q0.234375 -0.46875 0.234375 -1.40625l0 -0.515625zm3.6015625 7.359375l0 -11.484375l1.28125 0l0 1.078125q0.453125 -0.640625 1.015625 -0.953125q0.578125 -0.3125 1.390625 -0.3125q1.0625 0 1.875 0.546875q0.8125 0.546875 1.21875 1.546875q0.421875 0.984375 0.421875 2.171875q0 1.28125 -0.46875 2.296875q-0.453125 1.015625 -1.328125 1.5625q-0.859375 0.546875 -1.828125 0.546875q-0.703125 0 -1.265625 -0.296875q-0.546875 -0.296875 -0.90625 -0.75l0 4.046875l-1.40625 0zm1.265625 -7.296875q0 1.609375 0.640625 2.375q0.65625 0.765625 1.578125 0.765625q0.9375 0 1.609375 -0.796875q0.671875 -0.796875 0.671875 -2.453125q0 -1.59375 -0.65625 -2.375q-0.65625 -0.796875 -1.5625 -0.796875q-0.890625 0 -1.59375 0.84375q-0.6875 0.84375 -0.6875 2.4375zm7.6328125 4.109375l0 -11.453125l1.40625 0l0 4.109375q0.984375 -1.140625 2.484375 -1.140625q0.921875 0 1.59375 0.359375q0.6875 0.359375 0.96875 1.0q0.296875 0.640625 0.296875 1.859375l0 5.265625l-1.40625 0l0 -5.265625q0 -1.046875 -0.453125 -1.53125q-0.453125 -0.484375 -1.296875 -0.484375q-0.625 0 -1.171875 0.328125q-0.546875 0.328125 -0.78125 0.890625q-0.234375 0.546875 -0.234375 1.515625l0 4.546875l-1.40625 0zm13.0625 -5.578125q0 -2.859375 1.53125 -4.46875q1.53125 -1.609375 3.953125 -1.609375q1.578125 0 2.84375 0.765625q1.28125 0.75 1.953125 2.109375q0.671875 1.34375 0.671875 3.0625q0 1.75 -0.703125 3.125q-0.703125 1.375 -2.0 2.09375q-1.28125 0.703125 -2.78125 0.703125q-1.609375 0 -2.890625 -0.78125q-1.265625 -0.796875 -1.921875 -2.140625q-0.65625 -1.359375 -0.65625 -2.859375zm1.5625 0.015625q0 2.078125 1.109375 3.265625q1.109375 1.1875 2.796875 1.1875q1.703125 0 2.8125 -1.203125q1.109375 -1.203125 1.109375 -3.40625q0 -1.40625 -0.484375 -2.4375q-0.46875 -1.046875 -1.375 -1.625q-0.90625 -0.578125 -2.046875 -0.578125q-1.609375 0 -2.765625 1.109375q-1.15625 1.109375 -1.15625 3.6875zm16.601562 5.5625l0 -1.21875q-0.96875 1.40625 -2.640625 1.40625q-0.734375 0 -1.375 -0.28125q-0.625 -0.28125 -0.9375 -0.703125q-0.3125 -0.4375 -0.4375 -1.046875q-0.078125 -0.421875 -0.078125 -1.3125l0 -5.140625l1.40625 0l0 4.59375q0 1.109375 0.078125 1.484375q0.140625 0.5625 0.5625 0.875q0.4375 0.3125 1.0625 0.3125q0.640625 0 1.1875 -0.3125q0.5625 -0.328125 0.78125 -0.890625q0.234375 -0.5625 0.234375 -1.625l0 -4.4375l1.40625 0l0 8.296875l-1.25 0zm6.5234375 -1.265625l0.203125 1.25q-0.59375 0.125 -1.0625 0.125q-0.765625 0 -1.1875 -0.234375q-0.421875 -0.25 -0.59375 -0.640625q-0.171875 -0.40625 -0.171875 -1.671875l0 -4.765625l-1.03125 0l0 -1.09375l1.03125 0l0 -2.0625l1.40625 -0.84375l0 2.90625l1.40625 0l0 1.09375l-1.40625 0l0 4.84375q0 0.609375 0.0625 0.78125q0.078125 0.171875 0.25 0.28125q0.171875 0.09375 0.484375 0.09375q0.234375 0 0.609375 -0.0625zm1.3828125 4.453125l0 -11.484375l1.28125 0l0 1.078125q0.453125 -0.640625 1.015625 -0.953125q0.578125 -0.3125 1.390625 -0.3125q1.0625 0 1.875 0.546875q0.8125 0.546875 1.21875 1.546875q0.421875 0.984375 0.421875 2.171875q0 1.28125 -0.46875 2.296875q-0.453125 1.015625 -1.328125 1.5625q-0.859375 0.546875 -1.828125 0.546875q-0.703125 0 -1.265625 -0.296875q-0.546875 -0.296875 -0.90625 -0.75l0 4.046875l-1.40625 0zm1.265625 -7.296875q0 1.609375 0.640625 2.375q0.65625 0.765625 1.578125 0.765625q0.9375 0 1.609375 -0.796875q0.671875 -0.796875 0.671875 -2.453125q0 -1.59375 -0.65625 -2.375q-0.65625 -0.796875 -1.5625 -0.796875q-0.890625 0 -1.59375 0.84375q-0.6875 0.84375 -0.6875 2.4375zm13.0703125 4.109375l0 -1.21875q-0.96875 1.40625 -2.640625 1.40625q-0.734375 0 -1.375 -0.28125q-0.625 -0.28125 -0.9375 -0.703125q-0.3125 -0.4375 -0.4375 -1.046875q-0.078125 -0.421875 -0.078125 -1.3125l0 -5.140625l1.40625 0l0 4.59375q0 1.109375 0.078125 1.484375q0.140625 0.5625 0.5625 0.875q0.4375 0.3125 1.0625 0.3125q0.640625 0 1.1875 -0.3125q0.5625 -0.328125 0.78125 -0.890625q0.234375 -0.5625 0.234375 -1.625l0 -4.4375l1.40625 0l0 8.296875l-1.25 0zm6.5234375 -1.265625l0.203125 1.25q-0.59375 0.125 -1.0625 0.125q-0.765625 0 -1.1875 -0.234375q-0.421875 -0.25 -0.59375 -0.640625q-0.171875 -0.40625 -0.171875 -1.671875l0 -4.765625l-1.03125 0l0 -1.09375l1.03125 0l0 -2.0625l1.40625 -0.84375l0 2.90625l1.40625 0l0 1.09375l-1.40625 0l0 4.84375q0 0.609375 0.0625 0.78125q0.078125 0.171875 0.25 0.28125q0.171875 0.09375 0.484375 0.09375q0.234375 0 0.609375 -0.0625z" fill-rule="nonzero"/><path fill="#cfe2f3" d="m972.8297 144.15851l0 0c0 -6.288208 5.0976562 -11.3858185 11.385864 -11.3858185l0 0c3.0197144 0 5.9157104 1.1995697 8.050964 3.3348236c2.135254 2.135254 3.3348389 5.031296 3.3348389 8.050995l0 0c0 6.2882233 -5.097595 11.385834 -11.385803 11.385834l0 0c-6.288208 0 -11.385864 -5.0976105 -11.385864 -11.385834z" fill-rule="evenodd"/><path stroke="#000000" stroke-width="1.0" stroke-linejoin="round" stroke-linecap="butt" d="m972.8297 144.15851l0 0c0 -6.288208 5.0976562 -11.3858185 11.385864 -11.3858185l0 0c3.0197144 0 5.9157104 1.1995697 8.050964 3.3348236c2.135254 2.135254 3.3348389 5.031296 3.3348389 8.050995l0 0c0 6.2882233 -5.097595 11.385834 -11.385803 11.385834l0 0c-6.288208 0 -11.385864 -5.0976105 -11.385864 -11.385834z" fill-rule="evenodd"/><path fill="#cfe2f3" d="m1041.2129 166.93016l0 0c0 -6.288208 5.0976562 -11.3858185 11.385864 -11.3858185l0 0c3.0197754 0 5.9157715 1.1995697 8.051025 3.3348236c2.135254 2.1352692 3.3348389 5.031296 3.3348389 8.050995l0 0c0 6.2882233 -5.0976562 11.385834 -11.385864 11.385834l0 0c-6.288208 0 -11.385864 -5.0976105 -11.385864 -11.385834z" fill-rule="evenodd"/><path stroke="#000000" stroke-width="1.0" stroke-linejoin="round" stroke-linecap="butt" d="m1041.2129 166.93016l0 0c0 -6.288208 5.0976562 -11.3858185 11.385864 -11.3858185l0 0c3.0197754 0 5.9157715 1.1995697 8.051025 3.3348236c2.135254 2.1352692 3.3348389 5.031296 3.3348389 8.050995l0 0c0 6.2882233 -5.0976562 11.385834 -11.385864 11.385834l0 0c-6.288208 0 -11.385864 -5.0976105 -11.385864 -11.385834z" fill-rule="evenodd"/><path fill="#cfe2f3" d="m967.2497 226.20312l0 0c0 -6.288208 5.097595 -11.3858185 11.385803 -11.3858185l0 0c3.0197144 0 5.9157715 1.1995697 8.051025 3.3348236c2.135254 2.1352692 3.3348389 5.031296 3.3348389 8.050995l0 0c0 6.2882233 -5.0976562 11.385834 -11.385864 11.385834l0 0c-6.288208 0 -11.385803 -5.0976105 -11.385803 -11.385834z" fill-rule="evenodd"/><path stroke="#000000" stroke-width="1.0" stroke-linejoin="round" stroke-linecap="butt" d="m967.2497 226.20312l0 0c0 -6.288208 5.097595 -11.3858185 11.385803 -11.3858185l0 0c3.0197144 0 5.9157715 1.1995697 8.051025 3.3348236c2.135254 2.1352692 3.3348389 5.031296 3.3348389 8.050995l0 0c0 6.2882233 -5.0976562 11.385834 -11.385864 11.385834l0 0c-6.288208 0 -11.385803 -5.0976105 -11.385803 -11.385834z" fill-rule="evenodd"/><path fill="#cfe2f3" d="m1052.5988 204.56403l0 0c0 -6.2882233 5.0976562 -11.385834 11.385864 -11.385834l0 0c3.0196533 0 5.9157715 1.199585 8.051025 3.3348389c2.135254 2.135254 3.3348389 5.0312805 3.3348389 8.050995l0 0c0 6.2882233 -5.0976562 11.3858185 -11.385864 11.3858185l0 0c-6.288208 0 -11.385864 -5.097595 -11.385864 -11.3858185z" fill-rule="evenodd"/><path stroke="#000000" stroke-width="1.0" stroke-linejoin="round" stroke-linecap="butt" d="m1052.5988 204.56403l0 0c0 -6.2882233 5.0976562 -11.385834 11.385864 -11.385834l0 0c3.0196533 0 5.9157715 1.199585 8.051025 3.3348389c2.135254 2.135254 3.3348389 5.0312805 3.3348389 8.050995l0 0c0 6.2882233 -5.0976562 11.3858185 -11.385864 11.3858185l0 0c-6.288208 0 -11.385864 -5.097595 -11.385864 -11.3858185z" fill-rule="evenodd"/><path fill="#cfe2f3" d="m1018.4413 258.20312l0 0c0 -6.288208 5.097595 -11.3858185 11.385864 -11.3858185l0 0c3.0196533 0 5.9156494 1.1995697 8.050903 3.3348236c2.135376 2.1352692 3.3348389 5.031296 3.3348389 8.050995l0 0c0 6.2882385 -5.097534 11.385834 -11.385742 11.385834l0 0c-6.288269 0 -11.385864 -5.097595 -11.385864 -11.385834z" fill-rule="evenodd"/><path stroke="#000000" stroke-width="1.0" stroke-linejoin="round" stroke-linecap="butt" d="m1018.4413 258.20312l0 0c0 -6.288208 5.097595 -11.3858185 11.385864 -11.3858185l0 0c3.0196533 0 5.9156494 1.1995697 8.050903 3.3348236c2.135376 2.1352692 3.3348389 5.031296 3.3348389 8.050995l0 0c0 6.2882385 -5.097534 11.385834 -11.385742 11.385834l0 0c-6.288269 0 -11.385864 -5.097595 -11.385864 -11.385834z" fill-rule="evenodd"/><path fill="#000000" fill-opacity="0.0" d="m992.26654 152.2095l37.574768 94.61418" fill-rule="evenodd"/><path stroke="#000000" stroke-width="1.0" stroke-linejoin="round" stroke-linecap="butt" d="m992.26654 152.2095l37.574768 94.61418" fill-rule="evenodd"/><path fill="#000000" fill-opacity="0.0" d="m1063.9846 215.94984l-26.11023 34.204727" fill-rule="evenodd"/><path stroke="#000000" stroke-width="1.0" stroke-linejoin="round" stroke-linecap="butt" d="m1063.9846 215.94984l-26.11023 34.204727" fill-rule="evenodd"/><path fill="#000000" fill-opacity="0.0" d="m1052.5988 204.56403l-65.921265 13.574799" fill-rule="evenodd"/><path stroke="#000000" stroke-width="1.0" stroke-linejoin="round" stroke-linecap="butt" d="m1052.5988 204.56403l-65.921265 13.574799" fill-rule="evenodd"/><path fill="#000000" fill-opacity="0.0" d="m986.6865 234.25412l31.748047 23.937012" fill-rule="evenodd"/><path stroke="#000000" stroke-width="1.0" stroke-linejoin="round" stroke-linecap="butt" d="m986.6865 234.25412l31.748047 23.937012" fill-rule="evenodd"/><path fill="#000000" fill-opacity="0.0" d="m995.6014 144.15851l45.606262 22.771652" fill-rule="evenodd"/><path stroke="#000000" stroke-width="1.0" stroke-linejoin="round" stroke-linecap="butt" d="m995.6014 144.15851l45.606262 22.771652" fill-rule="evenodd"/><path fill="#000000" fill-opacity="0.0" d="m978.6355 214.8173l5.574829 -59.27559" fill-rule="evenodd"/><path stroke="#000000" stroke-width="1.0" stroke-linejoin="round" stroke-linecap="butt" d="m978.6355 214.8173l5.574829 -59.27559" fill-rule="evenodd"/><path fill="#000000" fill-opacity="0.0" d="m914.07043 103.193825c9.280884 0 13.920044 21.330704 18.561768 42.661415c4.6417236 21.330704 9.286072 42.661423 18.572144 42.661423" fill-rule="evenodd"/><path stroke="#000000" stroke-width="1.0" stroke-linejoin="round" stroke-linecap="butt" d="m914.07043 103.193825c9.280884 0 13.920044 21.330704 18.561768 42.661415c4.6417236 21.330704 9.286072 42.661423 18.572144 42.661423" fill-rule="evenodd"/><path fill="#000000" fill-opacity="0.0" d="m914.07043 270.10904c9.280884 0 13.920044 -20.401566 18.561768 -40.803146c4.6417236 -20.40158 9.286072 -40.803146 18.572144 -40.803146" fill-rule="evenodd"/><path stroke="#000000" stroke-width="1.0" stroke-linejoin="round" stroke-linecap="butt" d="m914.07043 270.10904c9.280884 0 13.920044 -20.401566 18.561768 -40.803146c4.6417236 -20.40158 9.286072 -40.803146 18.572144 -40.803146" fill-rule="evenodd"/></g></svg>